<?xml version="1.0" encoding="UTF-8"?>
<!DOCTYPE svg PUBLIC "-//W3C//DTD SVG 1.1//EN" "http://www.w3.org/Graphics/SVG/1.1/DTD/svg11.dtd">
<!-- Creator: CorelDRAW 2019 (64 Bit) -->
<svg xmlns="http://www.w3.org/2000/svg" xml:space="preserve" width="145px" height="29px" version="1.1" style="shape-rendering:geometricPrecision; text-rendering:geometricPrecision; image-rendering:optimizeQuality; fill-rule:evenodd; clip-rule:evenodd"
viewBox="0 0 8.15 1.63"
 xmlns:xlink="http://www.w3.org/1999/xlink">
 <defs>
  <style type="text/css">
   <![CDATA[
    .fil1 {fill:#FEFEFE}
    .fil4 {fill:white}
    .fil0 {fill:#FFF212;fill-rule:nonzero}
    .fil2 {fill:url(#id0);fill-rule:nonzero}
    .fil3 {fill:url(#id1);fill-rule:nonzero}
   ]]>
  </style>
  <linearGradient id="id0" gradientUnits="userSpaceOnUse" x1="4.65" y1="0.67" x2="5.08" y2="1.31">
   <stop offset="0" style="stop-opacity:1; stop-color:#A91B20"/>
   <stop offset="1" style="stop-opacity:1; stop-color:#ED1B23"/>
  </linearGradient>
  <linearGradient id="id1" gradientUnits="userSpaceOnUse" x1="6.02" y1="1.17" x2="8.85" y2="0.02">
   <stop offset="0" style="stop-opacity:1; stop-color:#ED1B23"/>
   <stop offset="1" style="stop-opacity:1; stop-color:#201E1E"/>
  </linearGradient>
 </defs>
 <g id="Camada_x0020_1">
  <metadata id="CorelCorpID_0Corel-Layer"/>
  <path class="fil0" d="M0 0.91c0.03,-0.04 0.07,-0.08 0.1,-0.13 0.02,0.07 0.05,0.13 0.07,0.18 0.03,0.04 0.05,0.07 0.08,0.09 0.01,0 0.02,0 0.03,0 0.01,-0.01 0.01,-0.02 0.01,-0.03 0,-0.02 -0.01,-0.05 -0.04,-0.09 -0.01,-0.01 -0.02,-0.02 -0.02,-0.02 -0.05,-0.07 -0.08,-0.14 -0.1,-0.2 -0.03,-0.07 -0.04,-0.13 -0.03,-0.2 0,-0.1 0.02,-0.17 0.07,-0.23 0.05,-0.06 0.11,-0.1 0.18,-0.09 0.05,0 0.09,0.02 0.12,0.04 0.04,0.03 0.07,0.07 0.1,0.13 -0.03,0.09 -0.06,0.19 -0.09,0.29 -0.03,-0.05 -0.05,-0.09 -0.07,-0.11 -0.02,-0.02 -0.04,-0.04 -0.05,-0.04 -0.01,0 -0.02,0 -0.03,0.01 0,0.01 -0.01,0.02 -0.01,0.03 0,0.03 0.02,0.06 0.05,0.1 0.01,0.01 0.02,0.02 0.03,0.02 0.04,0.05 0.07,0.11 0.09,0.16 0.02,0.06 0.03,0.13 0.02,0.21 0,0.13 -0.03,0.23 -0.08,0.31 -0.05,0.07 -0.12,0.09 -0.19,0.05 -0.05,-0.02 -0.09,-0.08 -0.13,-0.16 -0.04,-0.08 -0.08,-0.2 -0.11,-0.32zm0.52 0.55c0.03,-0.21 0.06,-0.41 0.08,-0.61 0.03,-0.21 0.05,-0.41 0.08,-0.61 0.07,0 0.15,0.01 0.22,0.02 -0.02,0.2 -0.05,0.4 -0.07,0.6 -0.03,0.2 -0.05,0.4 -0.08,0.6 -0.07,0 -0.15,0 -0.23,0zm0.29 0c0.04,-0.2 0.08,-0.4 0.11,-0.6 0.04,-0.2 0.08,-0.4 0.12,-0.59 0.07,0.01 0.14,0.02 0.22,0.03 0,0.06 0,0.12 0,0.18 0,0.06 0.01,0.12 0.01,0.18 0,0.04 0,0.08 0,0.11 0,0.04 0,0.09 0,0.13 0.03,-0.1 0.05,-0.2 0.08,-0.29 0.03,-0.1 0.05,-0.19 0.08,-0.29 0.07,0.02 0.15,0.03 0.22,0.05 -0.01,0.16 -0.01,0.32 -0.02,0.47 -0.01,0.16 -0.01,0.32 -0.02,0.47 -0.07,0.01 -0.14,0.03 -0.21,0.04 0.01,-0.09 0.01,-0.18 0.02,-0.27 0,-0.09 0.01,-0.18 0.02,-0.27 -0.01,0.03 -0.02,0.05 -0.02,0.08 -0.01,0.03 -0.02,0.06 -0.03,0.09 -0.02,0.06 -0.04,0.13 -0.06,0.2 -0.02,0.07 -0.03,0.13 -0.05,0.2 -0.05,0.01 -0.09,0.02 -0.13,0.03 -0.01,-0.09 -0.01,-0.19 -0.01,-0.28 -0.01,-0.1 -0.01,-0.2 -0.01,-0.3 -0.01,0.03 -0.01,0.06 -0.01,0.09 -0.01,0.04 -0.01,0.07 -0.02,0.1 -0.01,0.07 -0.03,0.14 -0.04,0.21 -0.01,0.06 -0.02,0.13 -0.03,0.2 -0.08,0.01 -0.15,0.02 -0.22,0.03zm1.13 -0.7c0,0 0,0 0.01,0 0.03,0.01 0.05,0.02 0.06,0.01 0.01,0 0.02,-0.02 0.02,-0.04 0,-0.01 -0.01,-0.02 -0.01,-0.04 -0.01,-0.01 -0.03,-0.02 -0.04,-0.02 -0.01,-0.01 -0.02,-0.01 -0.03,-0.01 0,0.03 -0.01,0.07 -0.01,0.1zm-0.05 0.32c0.01,0 0.01,0 0.02,0 0.03,0.01 0.06,0.01 0.07,0 0.02,0 0.03,-0.01 0.03,-0.04 0,-0.02 -0.01,-0.04 -0.02,-0.05 -0.01,-0.02 -0.02,-0.03 -0.05,-0.03 -0.01,-0.01 -0.02,-0.01 -0.03,-0.01 -0.01,0.04 -0.01,0.08 -0.02,0.13zm-0.24 0.22c0.02,-0.15 0.04,-0.3 0.06,-0.46 0.02,-0.15 0.04,-0.3 0.06,-0.44 0.07,0.01 0.14,0.03 0.21,0.06 0.08,0.03 0.14,0.09 0.18,0.15 0.05,0.07 0.07,0.14 0.06,0.23 0,0.06 -0.01,0.1 -0.03,0.12 -0.02,0.02 -0.05,0.02 -0.09,-0.01 0.03,0.05 0.06,0.09 0.08,0.13 0.02,0.05 0.03,0.11 0.03,0.16 -0.01,0.09 -0.03,0.15 -0.07,0.17 -0.05,0.01 -0.09,-0.07 -0.18,-0.12 -0.09,-0.05 -0.21,-0.01 -0.31,0.01zm0.93 -0.35c-0.04,0 -0.07,0.02 -0.09,0.05 -0.02,0.04 -0.04,0.09 -0.04,0.15 0,0.05 0.01,0.09 0.03,0.12 0.02,0.03 0.04,0.05 0.07,0.05 0.04,0 0.07,-0.03 0.09,-0.07 0.03,-0.04 0.04,-0.09 0.04,-0.15 0,-0.04 -0.01,-0.08 -0.03,-0.11 -0.02,-0.03 -0.04,-0.04 -0.07,-0.04zm-0.05 0.68c-0.04,0 -0.08,-0.01 -0.12,-0.03 -0.03,-0.02 -0.06,-0.06 -0.09,-0.1 -0.03,-0.05 -0.05,-0.11 -0.06,-0.18 -0.02,-0.06 -0.03,-0.13 -0.02,-0.2 0,-0.07 0,-0.13 0.02,-0.19 0.01,-0.06 0.04,-0.11 0.06,-0.15 0.04,-0.05 0.08,-0.09 0.12,-0.11 0.05,-0.03 0.1,-0.04 0.16,-0.04 0.09,0 0.16,0.04 0.22,0.11 0.03,0.04 0.05,0.08 0.07,0.13 0.01,0.05 0.02,0.1 0.02,0.17 0,0.06 -0.01,0.13 -0.03,0.19 -0.01,0.07 -0.03,0.12 -0.06,0.18 -0.04,0.06 -0.08,0.12 -0.13,0.16 -0.05,0.03 -0.1,0.06 -0.16,0.06zm0.37 -0.09c0.02,-0.16 0.04,-0.31 0.06,-0.47 0.02,-0.15 0.05,-0.31 0.07,-0.46 0.08,-0.02 0.16,-0.04 0.24,-0.06 0.09,-0.02 0.16,-0.02 0.21,0.01 0.05,0.03 0.07,0.09 0.07,0.17 0,0.08 -0.02,0.14 -0.04,0.19 -0.03,0.06 -0.07,0.1 -0.12,0.13 0.02,0.05 0.03,0.1 0.05,0.15 0.01,0.05 0.03,0.11 0.04,0.16 -0.08,0.02 -0.16,0.05 -0.24,0.07 -0.01,-0.05 -0.02,-0.09 -0.03,-0.14 -0.01,-0.05 -0.02,-0.1 -0.03,-0.15 -0.01,0.05 -0.02,0.11 -0.03,0.16 0,0.06 -0.01,0.12 -0.02,0.17 -0.08,0.03 -0.15,0.05 -0.23,0.07zm0.3 -0.58c0.01,0 0.01,0 0.02,-0.01 0.03,-0.01 0.06,-0.02 0.07,-0.04 0.02,-0.02 0.03,-0.05 0.03,-0.08 0,-0.03 -0.01,-0.04 -0.02,-0.05 -0.01,-0.01 -0.03,-0.01 -0.06,0 -0.01,0 -0.01,0 -0.02,0 0,0.06 -0.01,0.12 -0.02,0.18zm0.66 -0.02c0.03,-0.01 0.05,-0.01 0.08,-0.02 0,-0.03 0,-0.06 0,-0.09 0,0 0,-0.01 0,-0.02 0,-0.04 0,-0.07 0,-0.09 0,-0.01 0,-0.03 0,-0.03 0,-0.01 0,-0.02 0,-0.03 -0.01,0.03 -0.01,0.05 -0.02,0.07 0,0.02 -0.01,0.04 -0.01,0.06 -0.02,0.05 -0.03,0.1 -0.05,0.15zm-0.35 0.41c0.06,-0.16 0.12,-0.32 0.17,-0.48 0.06,-0.16 0.11,-0.31 0.17,-0.46 0.08,-0.02 0.16,-0.03 0.25,-0.04 0.01,0.14 0.02,0.28 0.04,0.42 0.01,0.15 0.02,0.29 0.04,0.43 -0.08,0 -0.15,0 -0.23,0.01 0,-0.03 0,-0.07 0,-0.11 -0.05,0.01 -0.1,0.02 -0.15,0.03 -0.01,0.04 -0.03,0.08 -0.04,0.12 -0.08,0.03 -0.16,0.05 -0.25,0.08z"/>
  <path class="fil1" d="M5.64 0.5c0.01,0.07 0,0.13 -0.05,0.18 -0.05,0.05 -0.12,0.08 -0.19,0.08 -0.03,0 -0.07,-0.01 -0.1,-0.02 -0.02,0 -0.06,-0.02 -0.07,-0.02 -0.03,0 -0.06,0.03 -0.08,0.05 -0.02,0.03 -0.03,0.07 -0.03,0.1 0,0.03 0.01,0.07 0.02,0.11 0,0.04 0.01,0.08 0.01,0.12 0,0.05 -0.01,0.1 -0.05,0.14 -0.05,0.04 -0.11,0.06 -0.17,0.06 -0.06,0 -0.12,-0.01 -0.16,-0.05 -0.08,-0.06 -0.08,-0.16 -0.07,-0.25 0,-0.03 0,-0.06 0.01,-0.1 0,-0.01 0,-0.03 0,-0.04 0,-0.01 0.01,-0.02 0.01,-0.03 0,-0.06 -0.03,-0.1 -0.1,-0.12 -0.08,-0.01 -0.16,-0.02 -0.24,-0.04 -0.12,-0.02 -0.15,-0.11 -0.12,-0.21 0.03,-0.08 0.11,-0.12 0.2,-0.13 0.08,-0.01 0.16,0 0.23,-0.01 0.08,0 0.12,-0.02 0.14,-0.1 0.01,-0.07 -0.02,-0.15 0.05,-0.2 0.02,-0.02 0.05,-0.02 0.07,-0.02 0.08,0 0.12,0.05 0.13,0.11 0.02,0.06 0.02,0.08 0.02,0.14 0,0.03 0.01,0.06 0.03,0.07 0.04,0.02 0.1,0.02 0.14,0.02 0.02,0.01 0.04,0.01 0.07,0.01 0.02,0 0.04,0 0.06,0 0.12,0 0.21,0.04 0.24,0.15z"/>
  <path class="fil2" d="M5.34 0.36c0.06,0 0.16,0.02 0.21,0.06 0.16,0.14 0.01,0.31 -0.14,0.31 -0.06,0 -0.14,-0.03 -0.2,-0.02 -0.06,0 -0.09,0.05 -0.1,0.1 -0.02,0.11 0.04,0.26 0,0.37 -0.02,0.05 -0.06,0.08 -0.13,0.09 -0.12,0.02 -0.2,-0.01 -0.23,-0.08 -0.05,-0.09 -0.02,-0.24 -0.01,-0.32 0.01,-0.08 -0.01,-0.14 -0.07,-0.17 -0.1,-0.05 -0.19,-0.03 -0.27,-0.05 -0.16,-0.03 -0.17,-0.21 -0.01,-0.28 0.06,-0.03 0.16,-0.03 0.29,-0.02 0.06,0 0.1,0 0.12,-0.03 0.05,-0.04 0.06,-0.1 0.06,-0.15 0,-0.05 0,-0.08 0.01,-0.09 0.01,-0.02 0.04,-0.05 0.07,-0.05 0.17,-0.01 0.09,0.29 0.18,0.32 0.06,0.02 0.18,0.01 0.22,0.01z"/>
  <g>
   <path class="fil3" d="M6.9 1.07c0,0.03 -0.01,0.06 -0.02,0.07 -0.02,0.04 -0.03,0.06 -0.04,0.08 0,0.01 -0.01,0.02 -0.02,0.03 -0.01,0.01 -0.02,0.03 -0.02,0.04 -0.03,0.01 -0.05,0 -0.07,-0.02 -0.03,-0.01 -0.05,-0.02 -0.06,-0.02 -0.01,0 -0.02,0 -0.03,0.01 -0.01,0 -0.02,0 -0.03,0 -0.01,-0.01 -0.02,-0.01 -0.02,-0.01 -0.01,0 -0.02,0.01 -0.03,0.01 -0.02,0.01 -0.04,0.01 -0.06,0.01 0,0 0,-0.01 -0.01,-0.01 -0.01,-0.01 -0.02,-0.01 -0.04,-0.01 -0.01,0 -0.03,0.01 -0.04,0.01 -0.02,0 -0.03,-0.01 -0.04,-0.01 -0.02,0 -0.02,0 -0.02,0 -0.01,0 -0.01,0 -0.02,0.01 -0.01,0 -0.01,0 -0.02,0.01 0,0 0,0 -0.01,0l0 0c0,0 -0.01,0 -0.02,-0.01 -0.02,0 -0.03,0 -0.04,0 -0.02,0 -0.03,0.01 -0.04,0.01 -0.01,0.01 -0.03,0.01 -0.04,0.01 -0.02,0 -0.05,-0.01 -0.1,-0.02 0,0 -0.02,0 -0.06,0 0,0 -0.01,0 -0.03,-0.01 -0.01,0 -0.02,0 -0.02,0 -0.01,0 -0.02,0.01 -0.05,0.02 -0.02,0.01 -0.03,0.02 -0.05,0.02 -0.02,0 -0.05,-0.01 -0.09,-0.01 -0.01,0 -0.02,-0.01 -0.04,-0.02 -0.01,-0.01 -0.02,-0.02 -0.01,-0.02 0,-0.01 0,-0.01 0.01,-0.02 0.01,-0.01 0.02,-0.01 0.03,-0.02 0.04,0 0.08,-0.01 0.13,-0.03 0,0 0.01,-0.01 0.01,-0.02 0,-0.01 0.01,-0.02 0.01,-0.03 0.01,-0.03 0.02,-0.04 0.02,-0.04 0,-0.01 -0.01,-0.02 -0.01,-0.04 0,-0.01 0,-0.02 0.01,-0.04 0.01,-0.02 0.02,-0.05 0.02,-0.09 0,-0.06 0,-0.12 0.01,-0.17 0,-0.01 0,-0.03 -0.01,-0.04 0,-0.01 0,-0.02 0,-0.03 0,-0.01 0,-0.01 0,-0.02 0.01,-0.04 0.02,-0.07 0.02,-0.08 0,-0.02 -0.01,-0.05 -0.03,-0.08 0,-0.02 -0.01,-0.04 -0.02,-0.06 0,-0.02 -0.01,-0.03 -0.02,-0.04 -0.02,0 -0.03,-0.01 -0.04,-0.01 -0.01,0 -0.02,0 -0.04,0.01 -0.01,0 -0.03,0 -0.05,-0.01 -0.02,-0.01 -0.02,-0.03 -0.02,-0.05 0,-0.02 0.02,-0.04 0.05,-0.05 0.02,-0.01 0.05,-0.02 0.08,-0.02 0.01,0 0.02,0 0.04,0.01 0.03,0 0.04,0 0.05,0 0.01,0.01 0.02,0 0.04,0 0.02,-0.01 0.03,-0.01 0.05,-0.01 0.01,0 0.02,0 0.03,0 0.01,0 0.03,0 0.05,0 0.02,0 0.03,-0.01 0.03,0 0.02,0 0.04,0.01 0.07,0.03 0.01,0 0.02,0 0.02,0l0 0c0,0 0.02,0 0.04,-0.01 0.02,0 0.05,0 0.07,0 0,0.01 0.01,0.01 0.02,0 0.02,0 0.03,0 0.04,0 0.02,0 0.03,0 0.06,-0.01 0.02,-0.01 0.03,-0.01 0.04,-0.01 0.01,0 0.03,0 0.06,0.01 0.03,0.01 0.05,0.01 0.07,0.01 0.01,0 0.03,0 0.05,-0.01 0.04,0 0.05,-0.01 0.06,-0.01 0.02,0 0.05,0.01 0.09,0.03 0.02,0.02 0.02,0.05 0.01,0.09 0,0.03 0,0.05 0,0.09 -0.01,0.02 0,0.04 0.01,0.05 0.01,0.01 0.01,0.03 0.01,0.05 0,0.02 -0.01,0.04 -0.02,0.06 0,0 -0.01,0.01 -0.03,0.01 -0.01,0 -0.02,0 -0.03,-0.01 0,-0.01 -0.01,-0.02 -0.02,-0.04 -0.01,-0.01 -0.01,-0.02 -0.01,-0.04 -0.01,-0.01 -0.01,-0.02 -0.02,-0.03 -0.03,-0.02 -0.05,-0.04 -0.06,-0.06 -0.01,-0.01 -0.02,-0.03 -0.06,-0.05 0,0 -0.01,-0.01 -0.03,-0.03 -0.01,-0.01 -0.03,-0.01 -0.06,-0.01 -0.01,0 -0.03,0 -0.05,0 -0.01,0 -0.05,0 -0.09,0 -0.03,-0.01 -0.05,-0.01 -0.05,-0.01 -0.03,0.01 -0.05,0.02 -0.08,0.02 -0.02,0.01 -0.04,0.02 -0.05,0.04 -0.01,0.01 -0.01,0.04 -0.02,0.1 0,0.01 -0.01,0.03 -0.01,0.04 -0.01,0.02 -0.01,0.03 -0.01,0.03 0,0.01 0,0.03 0.01,0.04 0.01,0.01 0.01,0.03 0.02,0.06 0,0.01 0,0.02 0.01,0.02 0.01,0 0.01,0.01 0.02,0.01 0.01,0 0.03,0 0.06,-0.01 0.01,-0.01 0.05,-0.03 0.12,-0.05 0.02,-0.01 0.03,-0.03 0.03,-0.06 0,-0.02 0,-0.03 0.01,-0.04 0,-0.01 0.01,-0.01 0.01,-0.01 0.01,-0.03 0.02,-0.05 0.03,-0.05 0,-0.01 0.01,-0.01 0.01,-0.01 0.01,0.01 0.01,0.01 0.02,0.01 0.01,0.01 0.02,0.03 0.03,0.05 0,0.01 0,0.01 0,0.02 0,0.02 -0.01,0.03 -0.01,0.05 -0.01,0.02 -0.02,0.04 -0.02,0.04 0,0.01 0,0.03 -0.01,0.06 0,0.02 0,0.03 0,0.03 0,0.01 0,0.02 0.01,0.02 0,0.02 0,0.04 0.01,0.07 0.01,0.03 0,0.05 -0.01,0.07 0,0 -0.02,0.01 -0.04,0 -0.01,0 -0.02,0 -0.03,-0.01 -0.02,-0.03 -0.03,-0.05 -0.05,-0.06 -0.01,0 -0.03,0 -0.04,-0.01 -0.01,0 -0.02,-0.01 -0.03,-0.02 0,0 -0.02,0 -0.05,0 -0.01,-0.01 -0.02,-0.01 -0.04,-0.02 0,0 -0.02,0 -0.03,0 -0.01,0 -0.02,0.01 -0.03,0.02 0,0.01 -0.01,0.02 -0.01,0.03 -0.01,0 -0.01,0.01 -0.01,0.02 0,-0.01 -0.01,0.01 -0.02,0.06 0,0.01 0,0.02 0,0.03 0,0.01 0,0.03 0.01,0.04 0.01,0.02 0.01,0.04 0.01,0.05 0,0.03 0.01,0.06 0.02,0.08 0.01,0.01 0.01,0.02 0.02,0.04 0,0.01 0.01,0.02 0.03,0.04 0.01,0 0.04,0.01 0.1,0.01 0.01,0 0.01,0 0.03,-0.01 0.01,0 0.02,0 0.02,0 0.03,0.01 0.05,0 0.08,-0.01 0.01,-0.01 0.02,-0.01 0.03,-0.01 0.03,-0.01 0.04,-0.02 0.05,-0.02 0.01,-0.01 0.02,-0.01 0.04,-0.01 0.01,0 0.02,-0.01 0.03,-0.02 0.01,-0.01 0.03,-0.03 0.05,-0.04 0.01,0 0.02,-0.01 0.02,-0.02 0.01,-0.02 0.02,-0.04 0.04,-0.06 0.01,0 0.02,-0.01 0.02,-0.03 0.02,-0.01 0.03,-0.02 0.04,-0.04 0.01,-0.02 0.01,-0.03 0.01,-0.03 0.01,0 0.02,-0.01 0.04,0 0.01,0 0.02,0.01 0.04,0.03 0.01,0.01 0.01,0.02 0.01,0.04 0,0.02 0.01,0.04 0.01,0.05l0 0c0,0.01 0,0.02 0,0.04zm1.23 -0.76c-0.01,0.03 -0.02,0.05 -0.04,0.05 -0.02,0 -0.04,0 -0.06,0 -0.01,0.01 -0.02,0.02 -0.03,0.05 -0.01,0.05 -0.02,0.09 -0.02,0.12 0,0.03 0,0.07 0.01,0.11 0,0.03 0.01,0.05 0,0.06 0,0.01 0,0.02 0,0.03 0,0.02 -0.01,0.04 -0.01,0.05 0,0.02 0,0.03 0,0.06 0,0.01 0,0.03 0,0.05 -0.01,0.03 -0.01,0.05 -0.02,0.06 -0.01,0.02 -0.01,0.03 -0.02,0.04 0,0.03 -0.01,0.07 -0.02,0.1 -0.01,0.04 -0.03,0.06 -0.07,0.09 -0.04,0.02 -0.07,0.04 -0.11,0.07 -0.01,0.01 -0.02,0.02 -0.05,0.03 -0.02,0.01 -0.04,0.01 -0.06,0 -0.01,-0.01 -0.03,-0.01 -0.05,-0.01 -0.02,0 -0.03,0.01 -0.04,0.01 -0.01,0.01 -0.02,0.01 -0.03,0.01 0,0 0,0 -0.01,0 0,0 -0.01,0 -0.03,0 -0.01,-0.01 -0.02,-0.01 -0.04,-0.01 -0.02,-0.01 -0.03,-0.01 -0.05,-0.01 -0.02,-0.01 -0.04,-0.01 -0.06,-0.02 -0.01,-0.01 -0.04,-0.02 -0.07,-0.03 -0.02,0 -0.05,-0.01 -0.08,-0.03 -0.01,0 -0.01,-0.01 -0.02,-0.03 -0.01,-0.02 -0.02,-0.03 -0.02,-0.03 -0.01,-0.01 -0.02,-0.02 -0.02,-0.03 -0.01,-0.02 -0.01,-0.04 -0.01,-0.06 -0.01,-0.03 -0.01,-0.07 0,-0.11 0,-0.03 0.01,-0.07 0.02,-0.12 0,-0.01 0,-0.03 0,-0.04 -0.01,-0.02 -0.01,-0.04 -0.01,-0.07 0.01,-0.06 0.02,-0.12 0.03,-0.18 0.01,-0.03 0.01,-0.05 0,-0.07 -0.01,-0.04 -0.03,-0.05 -0.04,-0.06 -0.01,0 -0.02,0 -0.03,0.01 -0.01,0 -0.02,0 -0.02,0 -0.01,0 -0.02,0 -0.02,0 -0.01,-0.01 -0.02,-0.02 -0.03,-0.05 0,-0.03 0.01,-0.05 0.02,-0.07 0.01,-0.01 0.02,-0.02 0.03,-0.02 0.01,-0.01 0.02,-0.01 0.03,-0.01 0.01,0 0.02,0 0.03,0 0.01,0 0.03,0 0.05,0.01 0.02,0 0.04,0 0.05,0 0.01,0 0.02,0 0.03,0 0.02,0 0.04,-0.01 0.06,-0.01 0.02,0 0.03,0.01 0.05,0.01 0.01,0.01 0.02,0.01 0.03,0.01 0.01,0 0.02,0 0.03,-0.01 0.01,0 0.01,0 0.02,0 0.01,0 0.02,0 0.03,0.01 0.01,0.01 0.02,0.02 0.02,0.02 0.01,0 0.02,-0.01 0.03,-0.02 0.02,0 0.03,-0.01 0.03,-0.01 0.01,0 0.02,0.01 0.02,0.03 0.01,0.02 0.01,0.03 0,0.05 -0.01,0.02 -0.02,0.03 -0.05,0.02 -0.02,0 -0.04,0 -0.05,0.01 -0.01,0 -0.03,0.02 -0.05,0.03 -0.03,0.02 -0.04,0.04 -0.04,0.06 0,0.02 0.01,0.04 0.01,0.08 0,0.05 0.01,0.1 0.01,0.16 0,0.01 0.01,0.03 0,0.04 0,0.01 0,0.03 0,0.06 -0.01,0.02 -0.01,0.05 -0.01,0.08 0,0.07 0,0.12 0.02,0.17 0,0.01 0.01,0.03 0.02,0.04 0.01,0.01 0.02,0.02 0.04,0.03 0.01,0.01 0.02,0.01 0.03,0.02 0,0.01 0.01,0.01 0.02,0.01 0.03,0.01 0.06,0.02 0.08,0.02 0.01,0 0.03,-0.01 0.04,-0.01 0.02,-0.01 0.03,-0.01 0.04,-0.01 0.03,-0.01 0.06,-0.02 0.08,-0.04 0.01,0 0.01,-0.01 0.03,-0.02 0.01,-0.01 0.02,-0.03 0.03,-0.06 0,-0.03 0.01,-0.06 0.01,-0.11 0.01,-0.01 0.01,-0.04 0.02,-0.09 0,-0.02 0,-0.04 0,-0.08 -0.01,-0.02 -0.01,-0.05 0,-0.08 0,-0.01 0,-0.03 0.01,-0.05 0.01,-0.03 0.01,-0.04 0.01,-0.05 0,-0.04 0,-0.07 0,-0.08 -0.01,-0.01 -0.01,-0.01 -0.01,-0.02l0 0c0,0 0,-0.01 -0.01,-0.04 -0.01,-0.02 -0.03,-0.05 -0.06,-0.06 -0.04,-0.01 -0.07,-0.03 -0.08,-0.05 0,-0.01 0,-0.01 0,-0.02 0,-0.01 0,-0.01 0.01,-0.01 0.02,-0.02 0.06,-0.04 0.11,-0.05 0.01,0 0.02,0 0.05,0 0.02,0.01 0.04,0.01 0.05,0.01 0,0 0.01,0 0.03,-0.01 0.01,-0.01 0.02,-0.01 0.04,-0.01 0,0 0.01,0 0.02,0 0.01,0.01 0.02,0.01 0.02,0.01 0,0 0.02,0 0.05,0 0.01,-0.01 0.02,0 0.03,0.02 0.02,0.02 0.02,0.04 0.02,0.05z"/>
   <path id="1" class="fil4" d="M6.92 1.07c0,0.02 -0.01,0.03 -0.01,0.05 0,0 0,0 0,0 0,0.01 -0.01,0.02 -0.01,0.03l0 0c-0.01,0.02 -0.02,0.03 -0.02,0.05l0 0 0 0c-0.01,0.01 -0.01,0.02 -0.02,0.03 0,0 0,0 0,0 0,0 0,0.01 -0.01,0.02 0,0 -0.01,0.01 -0.01,0.02 0,0 0,0 0,0l0 0c-0.01,0 -0.01,0.01 -0.02,0.01 0,0 0,0 0,0 0,0.01 0,0.01 -0.01,0.02 0,0.01 -0.01,0.01 -0.01,0.01 -0.02,0 -0.03,0 -0.04,0l0 0c-0.02,0 -0.03,-0.01 -0.04,-0.02 -0.02,-0.01 -0.03,-0.01 -0.04,-0.02 0,0 0,0 0,0l0 0c0,0 -0.01,0 -0.01,0l0 0 0 0c-0.01,0 -0.01,0 -0.01,0 0,0 0,0 0,0 -0.01,0 -0.01,0 -0.02,0 0,0 0,0 0,0 -0.01,0.01 -0.02,0.01 -0.03,0.01 0,0 0,0 0,0l0 0 -0.02 -0.01 0 0c0,0 0,0 -0.01,0 0,0 0,0 0,0l0 0c0,0.01 -0.01,0.01 -0.02,0.01 0,0 0,0 0,0 -0.01,0 -0.02,0.01 -0.03,0.01 0,0 0,0 0,0 -0.01,0 -0.02,0 -0.03,0 0,0 0,0 -0.01,0 0,-0.01 0,-0.01 0,-0.01 0,0 0,0 0,0l0 0 -0.01 -0.01c0,0 0,0 0,0 -0.01,0 -0.01,0 -0.01,0 0,0 0,0 0,0 -0.01,0 -0.01,0 -0.01,0 0,0 0,0 0,0 -0.01,0 -0.02,0 -0.03,0l0 0 0 0c-0.01,0.01 -0.01,0.01 -0.02,0.01 -0.01,0 -0.02,0 -0.02,0l0 0c-0.01,-0.01 -0.02,-0.01 -0.03,-0.01l0 0 -0.01 0 -0.01 0c0,0 0,0 0,0l-0.01 0.01c0,0 0,0 0,0l-0.01 0c0,0 0,0 0,0l-0.01 0.01c0,0 0,0 0,0l0 0 0 0c-0.01,0 -0.01,0 -0.01,0l-0.01 0c0,0 0,0 0,0l-0.01 -0.01 0 0 0 0c-0.01,0 -0.02,0 -0.02,0l0 0c-0.01,0 -0.01,0 -0.02,0 0,0 0,0 0,0l0 0c-0.01,0 -0.01,0 -0.02,0.01 -0.01,0 -0.01,0 -0.02,0 0,0 0,0 0,0 0,0 -0.01,0 -0.02,0.01 0,0 0,0 0,0l0 0c0,0 -0.01,0 -0.02,0 -0.01,0 -0.03,0 -0.04,-0.01 -0.02,0 -0.04,-0.01 -0.06,-0.01 0,0 0,0 0,0l0 0c0,0 -0.01,0 -0.01,0 -0.01,0 -0.03,0 -0.05,0l0 0c0,0 0,0 -0.01,0 0,0 0,0 0,0l0 0 -0.02 -0.01c0,0 0,0 0,0l0 0 -0.01 0 -0.01 0c0,0 -0.01,0 -0.01,0 -0.01,0.01 -0.01,0.01 -0.02,0.02l0 0 0 0c-0.02,0.01 -0.03,0.01 -0.04,0.01 -0.01,0.01 -0.02,0.01 -0.03,0.01 0,0 0,0 -0.01,0l0 0c-0.01,-0.01 -0.04,-0.01 -0.08,-0.01 0,0 0,0 0,0 -0.01,0 -0.01,-0.01 -0.02,-0.01 -0.01,0 -0.02,-0.01 -0.03,-0.01 0,0 0,-0.01 -0.01,-0.01l0 0c0,0 -0.01,-0.01 -0.01,-0.01 0,0 0,0 0,0l0 0c-0.01,-0.01 -0.01,-0.02 0,-0.03 0,-0.01 0,-0.01 0.01,-0.02 0,0 0,0 0,0l0 0c0,0 0.01,0 0.01,-0.01 0.01,0 0.01,-0.01 0.02,-0.01 0,0 0,0 0,0l0 0c0.01,0 0.01,0 0.02,0 0,0 0,0 0,0 0.01,-0.01 0.03,-0.01 0.05,-0.02 0,0 0,0 0.01,0 0.01,0 0.03,-0.01 0.06,-0.01l0 -0.01c0,0 0,0 0,0 0,0 0,0 0,-0.01l0.01 -0.03c0,0 0,0 0,0l0 0 0.01 -0.03c0,0 0,0 0,0l0.01 -0.01c0,0 -0.01,-0.01 -0.01,-0.02 0,0 0,0 0,-0.01l0 0c0,0 0,-0.01 0,-0.02 0,0 0,0 0,0 0.01,-0.01 0.01,-0.02 0.02,-0.03 0,0 0,0 0,0 0,-0.01 0,-0.02 0.01,-0.03 0,-0.01 0,-0.03 0,-0.05l0 0 0 0c0,-0.03 0,-0.06 0,-0.09 0,-0.03 0.01,-0.06 0.01,-0.08 0,0 0,-0.01 0,-0.02 0,0 0,0 0,0 0,0 -0.01,-0.01 -0.01,-0.01 0,0 0,0 0,0 0,-0.01 0,-0.02 0,-0.02l0 0c0,-0.01 0,-0.02 0,-0.02l0 0c0,-0.01 0,-0.01 0,-0.02 0,0 0,0 0,0l0 0 0 -0.01 0 0c0.01,-0.01 0.01,-0.03 0.01,-0.04 0,-0.02 0.01,-0.03 0.01,-0.03 0,-0.01 0,-0.02 -0.01,-0.03 0,0 0,0 0,0 0,-0.02 -0.01,-0.03 -0.01,-0.04 0,0 0,-0.01 0,-0.01l0 0 -0.01 -0.02c0,0 0,0 0,0l-0.01 -0.03c-0.01,-0.01 -0.01,-0.02 -0.01,-0.02 -0.01,0 -0.01,0 -0.01,0 0,0 0,-0.01 0,-0.01l-0.04 -0.01c0,0 0,0 0,0 0,0 0,0 0,0l0 0 0 0c0,0 0,0 0,0 0,0 0,0 0,0 -0.01,0 -0.02,0 -0.03,0.01 0,0 0,0 0,0 0,0 -0.01,0 -0.02,0 0,0 0,0 -0.01,0 0,0 -0.01,-0.01 -0.02,-0.01 0,0 0,0 0,0 -0.02,-0.01 -0.03,-0.02 -0.03,-0.03l-0.01 0 0 0c0,-0.01 0,-0.03 0,-0.04 0,-0.01 0,-0.01 0,-0.01 0,-0.01 0.01,-0.02 0.02,-0.03 0,0 0,0 0,0 0.01,-0.01 0.02,-0.02 0.04,-0.03 0,0 0,0 0,0 0.01,-0.01 0.03,-0.01 0.04,-0.01l0 0c0.01,-0.01 0.03,-0.01 0.04,-0.01 0.01,0 0.01,0 0.01,0 0,0 0.01,0 0.02,0 0.01,0 0.02,0 0.03,0.01 0,0 0,0 0,0 0.01,0 0.02,0 0.03,0 0,0 0.01,0 0.01,0 0,0 0,0 0,0l0 0c0,0 0.01,0 0.01,0 0.01,0 0.02,0 0.02,0l0 0c0.01,-0.01 0.02,-0.01 0.03,-0.01 0,0 0,0 0,0 0.01,0 0.02,0 0.03,0 0,0 0.01,0 0.02,0 0,0 0,0 0,0 0,0 0.01,0 0.02,0 0,0 0.01,0 0.01,0l0 0 0 0c0.01,0 0.02,0 0.03,0 0,0 0,0 0,0l0 0c0.01,0 0.01,0 0.02,0 0,0 0,0 0,0 0.01,0 0.02,0 0.02,0 0,0 0,0 0,0l0.07 0.03c0,0 0,0 0,0 0,0 0.01,0 0.01,0 0,0 0,0 0,0l0.04 -0.01c0,0 0,0 0,0l0 0c0.02,0 0.05,0 0.07,0.01l0.01 0c0,0 0,-0.01 0.01,-0.01 0.01,0 0.01,0 0.02,0 0,0 0,0 0,0 0.01,0 0.01,0 0.02,0l0 0c0.01,0 0.01,0 0.02,0 0,0 0,0 0,0 0.01,-0.01 0.02,-0.01 0.03,-0.01l0 0c0.01,0 0.02,-0.01 0.03,-0.01l0 0c0.01,0 0.02,0 0.02,0l0 0c0.01,0 0.02,0 0.03,0 0,0 0,0 0,0 0.01,0 0.02,0.01 0.03,0.01 0.02,0 0.03,0.01 0.04,0.01l0 0c0.01,0 0.02,0 0.03,0 0,0 0,0 0,0l0 0c0,0 0.01,0 0.02,0 0,0 0,0 0,0 0,0 0.01,0 0.03,-0.01 0,0 0,0 0,0 0.03,0 0.05,-0.01 0.05,-0.01l0 0c0.02,0 0.04,0 0.06,0.01 0.01,0.01 0.03,0.01 0.05,0.03 0,0 0,0 0,0 0.01,0.01 0.02,0.02 0.02,0.04l0 0c0.01,0.02 0,0.04 0,0.06 0,0.02 0,0.03 0,0.04l0 0 0 0c0,0.02 0,0.03 0,0.05 0,0 0,0 0,0l0 0c-0.01,0.01 -0.01,0.02 0,0.02 0,0 0,0 0,0 0,0.01 0,0.01 0,0.02 0.01,0.01 0.01,0.02 0.02,0.03 0,0 0,0 0,0 0,0.01 0,0.02 0,0.03l0 0 0 0c0,0.01 0,0.03 -0.01,0.04 0,0 0,0 0,0 0,0.01 -0.01,0.02 -0.01,0.03 -0.01,0 -0.01,0.01 -0.01,0.01 0,0 -0.01,0 -0.02,0 0,0 0,0 0,0l0 0.01c0,0 -0.01,0 -0.02,0 -0.01,0 -0.02,0 -0.02,-0.01 0,0 -0.01,0 -0.01,0 0,0 -0.01,-0.01 -0.01,-0.02l0 0c0,0 -0.01,0 -0.01,-0.01l0 0c0,0 -0.01,-0.01 -0.02,-0.02 0,0 0,0 0,0l0 0c0,-0.01 0,-0.01 -0.01,-0.02 0,0 0,0 0,0 0,-0.01 0,-0.01 0,-0.02 0,-0.01 -0.01,-0.01 -0.01,-0.02l0 0c0,0 0,-0.01 0,-0.01 -0.02,-0.01 -0.03,-0.02 -0.04,-0.03 0,0 0,0 0,0 -0.02,-0.01 -0.02,-0.02 -0.03,-0.03 0,-0.01 0,-0.01 -0.01,-0.02 -0.01,0 -0.02,-0.01 -0.04,-0.02 0,0 0,0 0,0l0 0 -0.03 -0.04c0,0 0,0 0,0 -0.01,0 -0.01,0 -0.01,0 0,0 0,0 -0.01,0 0,0 -0.01,0 -0.03,0 0,0 0,0 0,0 -0.01,0 -0.03,0 -0.05,0 -0.01,0 -0.02,0 -0.03,0 -0.02,0 -0.04,0 -0.06,0 -0.01,0 -0.01,0 -0.01,0l0 0c-0.01,-0.01 -0.02,-0.01 -0.03,-0.01l-0.01 0c0,0 0,0 0,0l0 0 -0.07 0.02c0,0 0,0 0,0 -0.01,0.01 -0.02,0.01 -0.03,0.02l0 0c0,0 -0.01,0.01 -0.02,0.01 0,0 0,0.01 0,0.03 0,0 0,0 0,0 0,0.01 -0.01,0.03 -0.01,0.06 0,0 0,0.01 0,0.01 0,0 0,0.01 -0.01,0.02 0,0 0,0.01 0,0.02 -0.01,0.01 -0.01,0.02 -0.01,0.03l0 0c0,0 0,0 0,0 0,0 0,0 0,0 0,0.01 0,0.01 0,0.01 0.01,0.01 0.01,0.01 0.01,0.01 0,0 0.01,0.01 0.01,0.03l0 0c0,0.01 0.01,0.02 0.01,0.04l0 0 0 0c0,0 0,0 0,0l0 0 0.02 0.01c0,0 0.02,0 0.04,-0.01 0.01,-0.01 0.02,-0.01 0.04,-0.02 0,0 0,0 0,0 0.02,-0.01 0.05,-0.02 0.08,-0.03 0,0 0,0 0,0 0.01,0 0.01,-0.01 0.01,-0.01 0,0 0,0 0,0l0 0c0.01,-0.01 0.01,-0.02 0.01,-0.03 0,0 0,0 0,0 0,-0.01 0,-0.02 0,-0.03 0,0 0,0 0,0l0 0c0.01,0 0.01,-0.01 0.01,-0.02l0.01 -0.01 0 0 0 0c0.01,-0.03 0.02,-0.05 0.04,-0.06 0,0 0,0 0.01,0 0,0 0,-0.01 0,-0.01l0 0c0,0 0.01,0 0.02,0 0,0 0,0 0,0l0 0 0.02 0.02c0.01,0 0.02,0.01 0.02,0.02 0,0 0,0 0,0 0.01,0.01 0.01,0.02 0.02,0.04 0,0 0,0 0,0l0 0 0 0.01c0,0 0,0 0,0l0 0.01c0,0 0,0 0,0l0 0c0,0.01 0,0.02 -0.01,0.03l0 0 0 0c0,0.01 0,0.02 0,0.03 0,0 0,0 0,0l0 0 -0.02 0.03c0,0 0,0 0,0l0 0c0,0.01 0,0.01 0,0.02l0 0c0,0.01 -0.01,0.03 -0.01,0.05 0,0 0,0 0,0 0,0 0,0.01 0,0.01 0,0 0,0 0,0 0,0.01 0,0.01 0,0.01l0 0.01 0.01 0.01c0,0 0,0 0,0l0.01 0.07c0,0 0,0 0,0l0 0c0,0.01 0,0.03 0,0.04l0 0 0 0c0,0.02 0,0.03 -0.01,0.04l0 0c-0.01,0.01 -0.03,0.02 -0.06,0.01 -0.01,0 -0.02,0 -0.03,-0.01 0,0 -0.01,0 -0.01,-0.01 0,0 0,0 0,0 -0.01,-0.02 -0.02,-0.03 -0.03,-0.03 -0.01,-0.01 -0.01,-0.01 -0.02,-0.02 0,0 -0.01,0 -0.02,0l0 0c0,-0.01 -0.01,-0.01 -0.01,-0.01l0 0c-0.01,0 -0.02,-0.01 -0.02,-0.01 -0.01,0 -0.01,0 -0.01,0 0,-0.01 -0.01,-0.01 -0.01,-0.01l-0.04 0c0,0 0,0 0,0l0 0c-0.01,-0.01 -0.02,-0.01 -0.03,-0.01 0,0 -0.01,-0.01 -0.02,-0.01 0,0 0,0 0,0l0 0c0,0 0,0 0,0 -0.01,0 -0.01,0 -0.02,0 0,0 0,0 0,0 -0.01,0 0,0 -0.01,0.01l-0.01 0.02 0 0 -0.01 0.01c0,0 0,0 0,0l0 0 0 0.01 0 0c0,0 0,0 0,0.01l-0.01 0c0,0 0,0 0,0l-0.01 0.05 0 0c0,0.01 0,0.01 0,0.02l0 0 0 0c0,0 0,0 0,0.01 0,0 0,0.01 0,0.02 0,0 0,0 0,0l0 0c0,0 0,0.01 0.01,0.02l0 0 0 0c0,0.01 0,0.01 0.01,0.02l0 0 0 0c0,0.01 0,0.02 0,0.03 0,0 0,0 0,0 0,0.01 0,0.03 0.01,0.04l0 0c0,0.01 0.01,0.02 0.01,0.03 0.01,0.01 0.01,0.02 0.02,0.04l0 0 0 0c0,0 0,0.01 0.01,0.01l0 0 0 0c0,0.01 0.01,0.02 0.01,0.02 0.01,0 0.01,0 0.03,0.01 0.01,0 0.03,0 0.06,0l0 0c0,0 0,0 0.01,0l0 0 0 0c0,0 0,0 0.01,-0.01 0,0 0,0 0,0 0.01,0 0.01,0 0.02,0 0,0 0,0 0,0 0.01,0 0.01,0 0.02,0 0,0 0,0 0,0 0.01,0 0.02,0 0.03,0 0.01,0 0.02,-0.01 0.03,-0.01 0,0 0,0 0,0 0.01,-0.01 0.01,-0.01 0.02,-0.01 0.01,0 0.01,0 0.02,0 0.01,-0.01 0.02,-0.01 0.02,-0.01l0 0c0.01,-0.01 0.02,-0.01 0.02,-0.01 0.01,0 0.01,0 0.01,0 0,0 0.01,-0.01 0.01,-0.01 0.01,0 0.02,0 0.03,0 0,0 0,0 0,0 0,0 0,0 0,0 0,0 0.01,-0.01 0.01,-0.01 0.02,-0.02 0.04,-0.03 0.06,-0.05 0,0 0,0 0,0 0.01,0 0.01,0 0.01,0 0,0 0,-0.01 0.01,-0.01 0,0 0,0 0,0 0,-0.01 0.01,-0.02 0.01,-0.03 0,0 0,0 0,0 0.01,-0.01 0.02,-0.02 0.03,-0.03l0.02 -0.03c0,0 0,0 0,0l0 0c0.01,-0.01 0.01,-0.01 0.02,-0.02 0,0 0,0 0,0 0,0 0.01,-0.01 0.01,-0.02 0,-0.01 0.01,-0.01 0.01,-0.02 0,-0.01 0.01,-0.01 0.01,-0.01 0,0 0,0 0,0 0.01,-0.01 0.02,-0.01 0.02,-0.01l0 0c0.01,-0.01 0.02,-0.01 0.03,0 0,0 0,0 0,0 0.01,0 0.02,0 0.03,0.01 0,0 0,0 0,0 0.01,0.01 0.02,0.02 0.03,0.03 0,0 0,0 0,0 0,0.01 0.01,0.01 0.01,0.02 0,0 0,0 0,0 0,0.01 0,0.02 0,0.03 0,0 0,0 0,0l0 0c0,0.01 0.01,0.02 0.01,0.03 0,0 0,0 0,0 0,0 0,0.01 0,0.02 0,0 0,0 0,0 0,0 0,0.01 0,0.01 0,0.01 0,0.01 0,0.01 0,0 0,0.01 0,0.02 0,0 0,0 0,0zm-0.75 -0.21c0,-0.01 -0.01,0.01 -0.02,0.06 0,0.01 0,0.02 0,0.03 0,0.01 0,0.03 0.01,0.04 0.01,0.02 0.01,0.04 0.01,0.05 0,0.03 0.01,0.06 0.02,0.08 0.01,0.01 0.01,0.02 0.02,0.04 0,0.01 0.01,0.02 0.03,0.04 0.01,0 0.04,0.01 0.1,0.01 0.01,0 0.01,0 0.03,-0.01 0.01,0 0.02,0 0.02,0 0.03,0.01 0.05,0 0.08,-0.01 0.01,-0.01 0.02,-0.01 0.03,-0.01 0.03,-0.01 0.04,-0.02 0.05,-0.02 0.01,-0.01 0.02,-0.01 0.04,-0.01 0.01,0 0.02,-0.01 0.03,-0.02 0.01,-0.01 0.03,-0.03 0.05,-0.04 0.01,0 0.02,-0.01 0.02,-0.02 0.01,-0.02 0.02,-0.04 0.04,-0.06 0.01,0 0.02,-0.01 0.02,-0.03 0.02,-0.01 0.03,-0.02 0.04,-0.04 0.01,-0.02 0.01,-0.03 0.01,-0.03 0.01,0 0.02,-0.01 0.04,0 0.01,0 0.02,0.01 0.04,0.03 0.01,0.01 0.01,0.02 0.01,0.04 0,0.02 0.01,0.04 0.01,0.05l0 0c0,0.01 0,0.02 0,0.04 0,0.03 -0.01,0.06 -0.02,0.07 -0.02,0.04 -0.03,0.06 -0.04,0.08 0,0.01 -0.01,0.02 -0.02,0.03 -0.01,0.01 -0.02,0.03 -0.02,0.04 -0.03,0.01 -0.05,0 -0.07,-0.02 -0.03,-0.01 -0.05,-0.02 -0.06,-0.02 -0.01,0 -0.02,0 -0.03,0.01 -0.01,0 -0.02,0 -0.03,0 -0.01,-0.01 -0.02,-0.01 -0.02,-0.01 -0.01,0 -0.02,0.01 -0.03,0.01 -0.02,0.01 -0.04,0.01 -0.06,0.01 0,0 0,-0.01 -0.01,-0.01 -0.01,-0.01 -0.02,-0.01 -0.04,-0.01 -0.01,0 -0.03,0.01 -0.04,0.01 -0.02,0 -0.03,-0.01 -0.04,-0.01 -0.02,0 -0.02,0 -0.02,0 -0.01,0 -0.01,0 -0.02,0.01 -0.01,0 -0.01,0 -0.02,0.01 0,0 0,0 -0.01,0l0 0c0,0 -0.01,0 -0.02,-0.01 -0.02,0 -0.03,0 -0.04,0 -0.02,0 -0.03,0.01 -0.04,0.01 -0.01,0.01 -0.03,0.01 -0.04,0.01 -0.02,0 -0.05,-0.01 -0.1,-0.02 0,0 -0.02,0 -0.06,0 0,0 -0.01,0 -0.03,-0.01 -0.01,0 -0.02,0 -0.02,0 -0.01,0 -0.02,0.01 -0.05,0.02 -0.02,0.01 -0.03,0.02 -0.05,0.02 -0.02,0 -0.05,-0.01 -0.09,-0.01 -0.01,0 -0.02,-0.01 -0.04,-0.02 -0.01,-0.01 -0.02,-0.02 -0.01,-0.02 0,-0.01 0,-0.01 0.01,-0.02 0.01,-0.01 0.02,-0.01 0.03,-0.02 0.04,0 0.08,-0.01 0.13,-0.03 0,0 0.01,-0.01 0.01,-0.02 0,-0.01 0.01,-0.02 0.01,-0.03 0.01,-0.03 0.02,-0.04 0.02,-0.04 0,-0.01 -0.01,-0.02 -0.01,-0.04 0,-0.01 0,-0.02 0.01,-0.04 0.01,-0.02 0.02,-0.05 0.02,-0.09 0,-0.06 0,-0.12 0.01,-0.17 0,-0.01 0,-0.03 -0.01,-0.04 0,-0.01 0,-0.02 0,-0.03 0,-0.01 0,-0.01 0,-0.02 0.01,-0.04 0.02,-0.07 0.02,-0.08 0,-0.02 -0.01,-0.05 -0.03,-0.08 0,-0.02 -0.01,-0.04 -0.02,-0.06 0,-0.02 -0.01,-0.03 -0.02,-0.04 -0.02,0 -0.03,-0.01 -0.04,-0.01 -0.01,0 -0.02,0 -0.04,0.01 -0.01,0 -0.03,0 -0.05,-0.01 -0.02,-0.01 -0.02,-0.03 -0.02,-0.05 0,-0.02 0.02,-0.04 0.05,-0.05 0.02,-0.01 0.05,-0.02 0.08,-0.02 0.01,0 0.02,0 0.04,0.01 0.03,0 0.04,0 0.05,0 0.01,0.01 0.02,0 0.04,0 0.02,-0.01 0.03,-0.01 0.05,-0.01 0.01,0 0.02,0 0.03,0 0.01,0 0.03,0 0.05,0 0.02,0 0.03,-0.01 0.03,0 0.02,0 0.04,0.01 0.07,0.03 0.01,0 0.02,0 0.02,0l0 0c0,0 0.02,0 0.04,-0.01 0.02,0 0.05,0 0.07,0 0,0.01 0.01,0.01 0.02,0 0.02,0 0.03,0 0.04,0 0.02,0 0.03,0 0.06,-0.01 0.02,-0.01 0.03,-0.01 0.04,-0.01 0.01,0 0.03,0 0.06,0.01 0.03,0.01 0.05,0.01 0.07,0.01 0.01,0 0.03,0 0.05,-0.01 0.04,0 0.05,-0.01 0.06,-0.01 0.02,0 0.05,0.01 0.09,0.03 0.02,0.02 0.02,0.05 0.01,0.09 0,0.03 0,0.05 0,0.09 -0.01,0.02 0,0.04 0.01,0.05 0.01,0.01 0.01,0.03 0.01,0.05 0,0.02 -0.01,0.04 -0.02,0.06 0,0 -0.01,0.01 -0.03,0.01 -0.01,0 -0.02,0 -0.03,-0.01 0,-0.01 -0.01,-0.02 -0.02,-0.04 -0.01,-0.01 -0.01,-0.02 -0.01,-0.04 -0.01,-0.01 -0.01,-0.02 -0.02,-0.03 -0.03,-0.02 -0.05,-0.04 -0.06,-0.06 -0.01,-0.01 -0.02,-0.03 -0.06,-0.05 0,0 -0.01,-0.01 -0.03,-0.03 -0.01,-0.01 -0.03,-0.01 -0.06,-0.01 -0.01,0 -0.03,0 -0.05,0 -0.01,0 -0.05,0 -0.09,0 -0.03,-0.01 -0.05,-0.01 -0.05,-0.01 -0.03,0.01 -0.05,0.02 -0.08,0.02 -0.02,0.01 -0.04,0.02 -0.05,0.04 -0.01,0.01 -0.01,0.04 -0.02,0.1 0,0.01 -0.01,0.03 -0.01,0.04 -0.01,0.02 -0.01,0.03 -0.01,0.03 0,0.01 0,0.03 0.01,0.04 0.01,0.01 0.01,0.03 0.02,0.06 0,0.01 0,0.02 0.01,0.02 0.01,0 0.01,0.01 0.02,0.01 0.01,0 0.03,0 0.06,-0.01 0.01,-0.01 0.05,-0.03 0.12,-0.05 0.02,-0.01 0.03,-0.03 0.03,-0.06 0,-0.02 0,-0.03 0.01,-0.04 0,-0.01 0.01,-0.01 0.01,-0.01 0.01,-0.03 0.02,-0.05 0.03,-0.05 0,-0.01 0.01,-0.01 0.01,-0.01 0.01,0.01 0.01,0.01 0.02,0.01 0.01,0.01 0.02,0.03 0.03,0.05 0,0.01 0,0.01 0,0.02 0,0.02 -0.01,0.03 -0.01,0.05 -0.01,0.02 -0.02,0.04 -0.02,0.04 0,0.01 0,0.03 -0.01,0.06 0,0.02 0,0.03 0,0.03 0,0.01 0,0.02 0.01,0.02 0,0.02 0,0.04 0.01,0.07 0.01,0.03 0,0.05 -0.01,0.07 0,0 -0.02,0.01 -0.04,0 -0.01,0 -0.02,0 -0.03,-0.01 -0.02,-0.03 -0.03,-0.05 -0.05,-0.06 -0.01,0 -0.03,0 -0.04,-0.01 -0.01,0 -0.02,-0.01 -0.03,-0.02 0,0 -0.02,0 -0.05,0 -0.01,-0.01 -0.02,-0.01 -0.04,-0.02 0,0 -0.02,0 -0.03,0 -0.01,0 -0.02,0.01 -0.03,0.02 0,0.01 -0.01,0.02 -0.01,0.03 -0.01,0 -0.01,0.01 -0.01,0.02zm1.96 -0.55c-0.01,0.03 -0.02,0.05 -0.04,0.05 -0.02,0 -0.04,0 -0.06,0 -0.01,0.01 -0.02,0.02 -0.03,0.05 -0.01,0.05 -0.02,0.09 -0.02,0.12 0,0.03 0,0.07 0.01,0.11 0,0.03 0.01,0.05 0,0.06 0,0.01 0,0.02 0,0.03 0,0.02 -0.01,0.04 -0.01,0.05 0,0.02 0,0.03 0,0.06 0,0.01 0,0.03 0,0.05 -0.01,0.03 -0.01,0.05 -0.02,0.06 -0.01,0.02 -0.01,0.03 -0.02,0.04 0,0.03 -0.01,0.07 -0.02,0.1 -0.01,0.04 -0.03,0.06 -0.07,0.09 -0.04,0.02 -0.07,0.04 -0.11,0.07 -0.01,0.01 -0.02,0.02 -0.05,0.03 -0.02,0.01 -0.04,0.01 -0.06,0 -0.01,-0.01 -0.03,-0.01 -0.05,-0.01 -0.02,0 -0.03,0.01 -0.04,0.01 -0.01,0.01 -0.02,0.01 -0.03,0.01 0,0 0,0 -0.01,0 0,0 -0.01,0 -0.03,0 -0.01,-0.01 -0.02,-0.01 -0.04,-0.01 -0.02,-0.01 -0.03,-0.01 -0.05,-0.01 -0.02,-0.01 -0.04,-0.01 -0.06,-0.02 -0.01,-0.01 -0.04,-0.02 -0.07,-0.03 -0.02,0 -0.05,-0.01 -0.08,-0.03 -0.01,0 -0.01,-0.01 -0.02,-0.03 -0.01,-0.02 -0.02,-0.03 -0.02,-0.03 -0.01,-0.01 -0.02,-0.02 -0.02,-0.03 -0.01,-0.02 -0.01,-0.04 -0.01,-0.06 -0.01,-0.03 -0.01,-0.07 0,-0.11 0,-0.03 0.01,-0.07 0.02,-0.12 0,-0.01 0,-0.03 0,-0.04 -0.01,-0.02 -0.01,-0.04 -0.01,-0.07 0.01,-0.06 0.02,-0.12 0.03,-0.18 0.01,-0.03 0.01,-0.05 0,-0.07 -0.01,-0.04 -0.03,-0.05 -0.04,-0.06 -0.01,0 -0.02,0 -0.03,0.01 -0.01,0 -0.02,0 -0.02,0 -0.01,0 -0.02,0 -0.02,0 -0.01,-0.01 -0.02,-0.02 -0.03,-0.05 0,-0.03 0.01,-0.05 0.02,-0.07 0.01,-0.01 0.02,-0.02 0.03,-0.02 0.01,-0.01 0.02,-0.01 0.03,-0.01 0.01,0 0.02,0 0.03,0 0.01,0 0.03,0 0.05,0.01 0.02,0 0.04,0 0.05,0 0.01,0 0.02,0 0.03,0 0.02,0 0.04,-0.01 0.06,-0.01 0.02,0 0.03,0.01 0.05,0.01 0.01,0.01 0.02,0.01 0.03,0.01 0.01,0 0.02,0 0.03,-0.01 0.01,0 0.01,0 0.02,0 0.01,0 0.02,0 0.03,0.01 0.01,0.01 0.02,0.02 0.02,0.02 0.01,0 0.02,-0.01 0.03,-0.02 0.02,0 0.03,-0.01 0.03,-0.01 0.01,0 0.02,0.01 0.02,0.03 0.01,0.02 0.01,0.03 0,0.05 -0.01,0.02 -0.02,0.03 -0.05,0.02 -0.02,0 -0.04,0 -0.05,0.01 -0.01,0 -0.03,0.02 -0.05,0.03 -0.03,0.02 -0.04,0.04 -0.04,0.06 0,0.02 0.01,0.04 0.01,0.08 0,0.05 0.01,0.1 0.01,0.16 0,0.01 0.01,0.03 0,0.04 0,0.01 0,0.03 0,0.06 -0.01,0.02 -0.01,0.05 -0.01,0.08 0,0.07 0,0.12 0.02,0.17 0,0.01 0.01,0.03 0.02,0.04 0.01,0.01 0.02,0.02 0.04,0.03 0.01,0.01 0.02,0.01 0.03,0.02 0,0.01 0.01,0.01 0.02,0.01 0.03,0.01 0.06,0.02 0.08,0.02 0.01,0 0.03,-0.01 0.04,-0.01 0.02,-0.01 0.03,-0.01 0.04,-0.01 0.03,-0.01 0.06,-0.02 0.08,-0.04 0.01,0 0.01,-0.01 0.03,-0.02 0.01,-0.01 0.02,-0.03 0.03,-0.06 0,-0.03 0.01,-0.06 0.01,-0.11 0.01,-0.01 0.01,-0.04 0.02,-0.09 0,-0.02 0,-0.04 0,-0.08 -0.01,-0.02 -0.01,-0.05 0,-0.08 0,-0.01 0,-0.03 0.01,-0.05 0.01,-0.03 0.01,-0.04 0.01,-0.05 0,-0.04 0,-0.07 0,-0.08 -0.01,-0.01 -0.01,-0.01 -0.01,-0.02l0 0c0,0 0,-0.01 -0.01,-0.04 -0.01,-0.02 -0.03,-0.05 -0.06,-0.06 -0.04,-0.01 -0.07,-0.03 -0.08,-0.05 0,-0.01 0,-0.01 0,-0.02 0,-0.01 0,-0.01 0.01,-0.01 0.02,-0.02 0.06,-0.04 0.11,-0.05 0.01,0 0.02,0 0.05,0 0.02,0.01 0.04,0.01 0.05,0.01 0,0 0.01,0 0.03,-0.01 0.01,-0.01 0.02,-0.01 0.04,-0.01 0,0 0.01,0 0.02,0 0.01,0.01 0.02,0.01 0.02,0.01 0,0 0.02,0 0.05,0 0.01,-0.01 0.02,0 0.03,0.02 0.02,0.02 0.02,0.04 0.02,0.05zm0.02 0c-0.01,0.02 -0.01,0.04 -0.02,0.05 -0.01,0.01 -0.03,0.02 -0.04,0.02 0,0 0,0 0,0l-0.05 0c0,0 -0.01,0.01 -0.01,0.01 0,0.01 -0.01,0.01 -0.01,0.03 0,0 0,0 0,0 -0.01,0.02 -0.01,0.04 -0.01,0.06 -0.01,0.02 -0.01,0.03 -0.01,0.05l0 0 0 0c0,0.01 0,0.03 0,0.05 0,0.02 0.01,0.04 0.01,0.06 0,0.01 0,0.02 0,0.03 0,0 0,0 0,0 0,0.01 0,0.02 0,0.03l0 0 0 0c0,0.01 0,0.01 0,0.02 0,0 0,0 0,0l0 0.02c0,0 0,0 0,0l0 0c0,0.01 0,0.01 -0.01,0.02 0,0 0,0 0,0 0,0.01 0,0.02 0,0.03l0 0 0 0.02 0 0.03 0 0c0,0 0,0.01 0,0.02 0,0.01 0,0.02 0,0.03 0,0 0,0 0,0 -0.01,0.02 -0.01,0.03 -0.01,0.04 0,0 0,0 0,0 0,0.01 -0.01,0.02 -0.01,0.02 0,0 0,0 0,0l0 0 -0.01 0.03c0,0 0,0 0,0l-0.01 0.02 -0.01 0.04c0,0 0,0.01 0,0.01l-0.01 0.05 0 0 0 0c-0.01,0.02 -0.02,0.04 -0.03,0.05l0 0c-0.01,0.02 -0.03,0.03 -0.06,0.05 0,0 0,0 0,0 -0.01,0 -0.03,0.01 -0.04,0.03l0 0c-0.02,0.01 -0.04,0.02 -0.06,0.04l0 0c0,0 -0.01,0 -0.02,0.01 0,0 0,0 0,0l0 0 -0.03 0.02c0,0 0,0 0,0l0 0c-0.01,0.01 -0.02,0.01 -0.04,0.01 -0.01,0 -0.02,0 -0.04,-0.01l0 0c0,0 -0.01,-0.01 -0.01,-0.01 -0.01,0 -0.02,0 -0.03,0l0 0c-0.01,0 -0.01,0 -0.02,0 0,0 0,0 0,0 0,0.01 -0.01,0.01 -0.01,0.01 0,0 0,0 0,0l-0.03 0.01c0,0 0,0 0,0l-0.01 0c0,0 0,0 0,0l0 0 -0.01 0c0,0 0,0 0,0l0 0c0,0 -0.01,0 -0.01,0 -0.01,0 -0.01,0 -0.01,0 0,0 -0.01,0 -0.01,0l-0.02 -0.01 0 0 -0.02 0 -0.03 -0.01c0,0 0,0 0,0l0 0 -0.03 0c0,0 0,0 0,0 -0.01,-0.01 -0.02,-0.01 -0.03,-0.01 0,0 0,0 0,0 -0.01,-0.01 -0.02,-0.01 -0.03,-0.01 0,-0.01 0,-0.01 0,-0.01 0,0 -0.01,0 -0.02,-0.01 0,0 -0.01,0 -0.01,0 -0.01,0 -0.02,0 -0.04,-0.01 -0.01,0 -0.02,0 -0.04,-0.01l0 0 0 0c-0.01,-0.01 -0.02,-0.01 -0.04,-0.02 0,0 0,0 0,-0.01l0 0c-0.01,0 -0.01,0 -0.02,-0.01l0 0c0,-0.01 0,-0.01 -0.01,-0.02 0,-0.01 0,-0.01 -0.01,-0.02l0 0 0 0c0,0 0,0 -0.01,-0.01l0 0c0,0 -0.01,-0.01 -0.01,-0.01l0 0c-0.01,-0.01 -0.01,-0.02 -0.01,-0.03 0,0 0,0 0,0l-0.01 -0.05c-0.01,-0.02 -0.01,-0.04 -0.01,-0.06l0 0 0 0c0,-0.02 0.01,-0.04 0.01,-0.06 0,-0.02 0,-0.03 0.01,-0.05 0,-0.02 0,-0.05 0.01,-0.07 0,0 0,0 0,-0.01 0,0 0,-0.01 0,-0.01 0,0 0,0 0,0l0 0c0,-0.01 0,-0.01 0,-0.02 0,-0.01 -0.01,-0.02 -0.01,-0.03 0,0 0,0 0,0 0,-0.01 0,-0.03 0,-0.04 0,0 0,0 0,0 0.01,-0.04 0.01,-0.07 0.01,-0.1 0.01,-0.03 0.01,-0.06 0.02,-0.09 0,0 0,0 0,0 0,-0.01 0.01,-0.02 0.01,-0.03 -0.01,-0.01 -0.01,-0.02 -0.01,-0.03 0,0 0,0 0,0l0 0c-0.01,-0.01 -0.01,-0.02 -0.02,-0.03 0,0 0,-0.01 0,-0.01 0,0 0,0 0,0 0,0 -0.01,0 -0.01,0l0 0c0,0 -0.01,0.01 -0.01,0.01 0,0 0,0 0,0l-0.02 0c0,0 0,0 0,0l0 0c0,0 -0.01,0 -0.01,0 0,0 0,0 0,0 -0.01,0 -0.01,0 -0.01,0l0 0c-0.01,0 -0.01,0 -0.02,0 0,0 0,0 0,0l0 0c-0.01,-0.01 -0.02,-0.01 -0.02,-0.03 0,0 0,0 0,0 -0.01,-0.01 -0.01,-0.02 -0.02,-0.04 0,0 0,0 0,0l0 0c0,-0.01 0,-0.03 0.01,-0.04 0,-0.01 0.01,-0.03 0.01,-0.04l0 0 0 0c0.01,-0.01 0.02,-0.02 0.02,-0.02 0,0 0,0 0,0l0 0c0.01,-0.01 0.02,-0.01 0.03,-0.01 0,0 0,0 0,0l0.03 -0.01c0,0 0,0 0,0l0 0 0.01 0c0,0 0,0 0,0l0 0 0.02 0c0,0 0,0 0,0 0.01,0 0.02,0 0.02,0 0.01,0 0.01,0 0.01,0 0.01,0 0.02,0 0.03,0.01 0,0 0,0 0,0 0.01,0 0.01,0 0.02,0 0.01,0 0.02,0 0.02,0 0,0 0.01,0 0.01,0 0,0 0,0 0,0l0.02 0 0 0c0.01,0 0.02,0 0.03,0 0.01,-0.01 0.02,-0.01 0.03,-0.01 0.01,0 0.02,0 0.03,0.01l0 0c0.01,0 0.02,0 0.02,0 0,0 0.01,0 0.01,0 0,0.01 0,0.01 0.01,0.01 0,0 0,0 0,0l0 0c0,0 0,0 0.01,0 0,0 0,0 0,0 0,0 0.01,0 0.01,0 0,0 0,0 0,0 0,0 0.01,0 0.01,0 0,0 0,0 0,0 0,-0.01 0.01,-0.01 0.01,-0.01 0.01,0 0.01,0 0.02,0l0 0c0.01,0 0.02,0 0.02,0 0,0 0,0 0,0l0 0c0.01,0.01 0.02,0.01 0.02,0.02 0.01,0 0.01,0.01 0.01,0.01 0,0 0,0 0,0l0 0 0 0c0,0 0,0 0.01,0 0,0 0,-0.01 0.01,-0.01l0 0 0 0c0.01,-0.01 0.02,-0.01 0.02,-0.01 0,0 0,0 0,0 0.01,-0.01 0.02,-0.01 0.02,-0.01l0 0c0.01,0 0.02,0.01 0.03,0.02 0.01,0 0.01,0.01 0.01,0.02 0,0 0,0.01 0,0.01 0.01,0.01 0.01,0.02 0.01,0.03 0,0.01 -0.01,0.02 -0.01,0.03l0 0c-0.01,0.01 -0.02,0.02 -0.03,0.03 0,0 0,0 0,0 -0.01,0.01 -0.02,0.01 -0.04,0 -0.01,0 -0.02,0 -0.02,0 -0.01,0 -0.01,0 -0.02,0 0,0.01 0,0.01 0,0.01l-0.05 0.03c-0.01,0.01 -0.02,0.01 -0.02,0.02l0 0c-0.01,0.01 -0.01,0.01 -0.01,0.02 0,0.01 0,0.02 0.01,0.03 0,0 0,0 0,0l0 0c0,0.01 0,0.03 0,0.05 0,0 0,0 0,0 0,0.02 0,0.05 0.01,0.08 0,0.02 0,0.05 0,0.07 0,0 0,0 0,0 0,0.01 0,0.02 0,0.03 0,0 0,0 0,0 0,0.01 0,0.02 0,0.02l0 0c0,0.01 0,0.01 0,0.02 0,0 0,0 0,0.01l0 0.03c0,0 0,0 0,0 -0.01,0.01 -0.01,0.03 -0.01,0.04 0,0 0,0 0,0 0,0.01 0,0.03 0,0.04 0,0 0,0 0,0l0 0c0,0.03 0,0.06 0,0.09 0,0.03 0.01,0.05 0.01,0.07 0.01,0.01 0.01,0.01 0.01,0.02 0,0 0,0 0,0 0.01,0.01 0.01,0.01 0.02,0.02l0 0 0.01 0.01c0,0 0,0 0,0l0.02 0.02c0.01,0 0.01,0 0.02,0 0,0 0,0 0,0 0,0.01 0.01,0.01 0.01,0.02 0,0 0,0 0,0l0 0c0,0 0,0 0.01,0 0,0 0,0 0,0 0,0 0,0 0.01,0 0.01,0.01 0.02,0.01 0.04,0.01 0.01,0.01 0.02,0.01 0.03,0.01l0 0c0,0 0.01,0 0.02,0 0,-0.01 0.01,-0.01 0.01,-0.01l0 0c0.02,0 0.03,-0.01 0.04,-0.01l0 0c0.02,0 0.03,-0.01 0.05,-0.02 0,0 0,0 0,0 0.01,0 0.02,-0.01 0.03,-0.02 0,0 0,0 0,0l0.01 -0.01 0.01 0 0 0c0.01,-0.01 0.01,-0.01 0.01,-0.02 0,0 0,0 0.01,0 0,-0.01 0,-0.02 0.01,-0.04 0,0 0,0 0,0l0.02 -0.1c0,0 0,0 0,0l0 0c0,-0.01 0,-0.04 0.01,-0.09 0,-0.01 0,-0.02 0,-0.03 0,-0.01 0,-0.03 0,-0.04 0,0 0,0 0,0 0,-0.02 -0.01,-0.03 -0.01,-0.04l0 0c0,-0.02 0.01,-0.03 0.01,-0.05 0,0 0,0 0,0 0,-0.01 0,-0.01 0,-0.02 0,-0.01 0.01,-0.02 0.01,-0.04 0,-0.01 0.01,-0.02 0.01,-0.03 0,0 0,0 0,0 0,0 0,-0.01 0,-0.01 0,-0.02 0,-0.04 0,-0.05 0,-0.01 0,-0.02 0,-0.02 0,-0.01 -0.01,-0.01 -0.01,-0.01l0 0c0,-0.01 0,-0.02 0,-0.02 0,0 0,0 0,-0.01l0 0c0,0 0,0 0,0l0 0c0,0 0,0 0,0 0,0 0,-0.01 -0.01,-0.02 0,-0.01 -0.01,-0.02 -0.01,-0.03l0 0c-0.01,-0.01 -0.03,-0.01 -0.04,-0.02l0 0 0 0c-0.04,-0.02 -0.07,-0.04 -0.08,-0.06 -0.01,0 -0.01,-0.01 -0.01,-0.02 0,0 0,0 0,0l0 0c0,0 0,-0.01 0,-0.02 0,0 0,0 0,0l0 0c0,-0.01 0.01,-0.02 0.02,-0.02 0,0 0,0 0,0 0.01,-0.01 0.03,-0.02 0.05,-0.03 0.02,0 0.04,-0.01 0.06,-0.02 0.01,0 0.01,0 0.01,0 0.01,0 0.01,0 0.02,0 0,0 0,0 0,0l0 0 0.03 0 0.05 0.01c0,0 0,0 0,0 0.01,0 0.01,0 0.02,-0.01 0,0 0,0 0,0 0.01,-0.01 0.03,-0.01 0.05,-0.01l0 0c0,0 0.01,0 0.01,0 0.01,0 0.01,0 0.02,0.01l0 0 0.01 0 0 0 0 0 0.05 0 0 0c0.01,-0.01 0.02,0 0.03,0.01 0,0 0,0 0,0 0,0 0.01,0.01 0.02,0.02 0.01,0.01 0.01,0.02 0.02,0.03l0 0 0 0c0,0.01 0,0.02 0,0.03l0 0zm-0.32 0.15c0,0 0,0 0,0l0 0z"/>
  </g>
 </g>
</svg>
