<?xml version="1.0" encoding="UTF-8"?>
<!DOCTYPE svg PUBLIC "-//W3C//DTD SVG 1.1//EN" "http://www.w3.org/Graphics/SVG/1.1/DTD/svg11.dtd">
<!-- Creator: CorelDRAW 2019 (64 Bit) -->
<svg xmlns="http://www.w3.org/2000/svg" xml:space="preserve" width="148px" height="30px" version="1.1" style="shape-rendering:geometricPrecision; text-rendering:geometricPrecision; image-rendering:optimizeQuality; fill-rule:evenodd; clip-rule:evenodd"
viewBox="0 0 8.61 1.75"
 xmlns:xlink="http://www.w3.org/1999/xlink">
 <defs>
  <style type="text/css">
   <![CDATA[
    .fil1 {fill:black}
    .fil0 {fill:#FFF212;fill-rule:nonzero}
    .fil2 {fill:url(#id0);fill-rule:nonzero}
    .fil3 {fill:url(#id1);fill-rule:nonzero}
   ]]>
  </style>
  <linearGradient id="id0" gradientUnits="userSpaceOnUse" x1="4.95" y1="0.67" x2="5.41" y2="1.34">
   <stop offset="0" style="stop-opacity:1; stop-color:#A91B20"/>
   <stop offset="1" style="stop-opacity:1; stop-color:#ED1B23"/>
  </linearGradient>
  <linearGradient id="id1" gradientUnits="userSpaceOnUse" x1="6.4" y1="1.19" x2="9.37" y2="-0.01">
   <stop offset="0" style="stop-opacity:1; stop-color:#ED1B23"/>
   <stop offset="1" style="stop-opacity:1; stop-color:#201E1E"/>
  </linearGradient>
 </defs>
 <g id="Camada_x0020_1">
  <metadata id="CorelCorpID_0Corel-Layer"/>
  <g>
   <path class="fil0" d="M0.07 0.92c0.03,-0.03 0.07,-0.08 0.11,-0.13 0.02,0.07 0.04,0.13 0.07,0.18 0.03,0.05 0.05,0.08 0.08,0.1 0.01,0 0.02,0 0.03,0 0.01,-0.01 0.01,-0.02 0.01,-0.03 0,-0.02 -0.01,-0.06 -0.04,-0.1 -0.01,-0.01 -0.01,-0.01 -0.02,-0.02 -0.05,-0.07 -0.09,-0.14 -0.11,-0.21 -0.02,-0.07 -0.03,-0.14 -0.03,-0.21 0,-0.1 0.03,-0.18 0.08,-0.24 0.05,-0.06 0.11,-0.1 0.19,-0.09 0.05,0 0.09,0.01 0.13,0.04 0.03,0.03 0.07,0.08 0.1,0.13 -0.04,0.1 -0.07,0.21 -0.1,0.31 -0.03,-0.05 -0.05,-0.09 -0.07,-0.11 -0.02,-0.03 -0.04,-0.04 -0.06,-0.05 -0.01,0 -0.02,0 -0.02,0.01 -0.01,0.01 -0.01,0.02 -0.01,0.04 0,0.03 0.01,0.06 0.05,0.1 0.01,0.01 0.02,0.02 0.02,0.03 0.05,0.05 0.09,0.11 0.1,0.17 0.02,0.05 0.03,0.13 0.03,0.21 -0.01,0.14 -0.03,0.25 -0.09,0.33 -0.05,0.07 -0.12,0.1 -0.2,0.05 -0.05,-0.03 -0.09,-0.08 -0.13,-0.17 -0.05,-0.08 -0.09,-0.21 -0.12,-0.34zm0.55 0.58c0.03,-0.21 0.05,-0.43 0.08,-0.64 0.03,-0.21 0.05,-0.43 0.08,-0.64 0.08,0 0.16,0.01 0.24,0.02 -0.03,0.21 -0.05,0.42 -0.08,0.63 -0.03,0.21 -0.06,0.42 -0.08,0.64 -0.08,0 -0.16,0 -0.24,-0.01zm0.3 0c0.04,-0.21 0.08,-0.42 0.12,-0.63 0.04,-0.21 0.08,-0.41 0.12,-0.62 0.07,0.01 0.15,0.02 0.23,0.03 0,0.06 0,0.13 0.01,0.19 0,0.06 0,0.13 0,0.19 0,0.04 0,0.08 0,0.12 0,0.04 0,0.09 0,0.13 0.03,-0.1 0.06,-0.2 0.09,-0.31 0.02,-0.1 0.05,-0.19 0.08,-0.29 0.08,0.01 0.16,0.03 0.23,0.04 0,0.17 -0.01,0.34 -0.02,0.5 -0.01,0.17 -0.01,0.33 -0.02,0.49 -0.07,0.02 -0.15,0.04 -0.22,0.05 0.01,-0.09 0.01,-0.19 0.02,-0.28 0.01,-0.1 0.01,-0.19 0.02,-0.29 -0.01,0.03 -0.01,0.06 -0.02,0.08 -0.01,0.03 -0.02,0.06 -0.03,0.1 -0.02,0.06 -0.04,0.14 -0.06,0.21 -0.02,0.07 -0.04,0.14 -0.06,0.21 -0.05,0.01 -0.09,0.02 -0.14,0.03 0,-0.1 0,-0.2 -0.01,-0.3 0,-0.1 0,-0.2 -0.01,-0.3 0,0.03 0,0.06 -0.01,0.09 0,0.03 -0.01,0.07 -0.02,0.1 -0.01,0.07 -0.02,0.14 -0.04,0.22 -0.01,0.07 -0.02,0.14 -0.03,0.21 -0.08,0.01 -0.15,0.03 -0.23,0.03zm1.18 -0.73c0.01,0 0.01,0 0.01,0 0.03,0.01 0.06,0.01 0.07,0.01 0.01,-0.01 0.02,-0.02 0.02,-0.04 0,-0.02 0,-0.03 -0.01,-0.04 -0.01,-0.02 -0.03,-0.02 -0.04,-0.03 -0.01,0 -0.02,-0.01 -0.03,-0.01 -0.01,0.04 -0.01,0.07 -0.02,0.11zm-0.04 0.33c0,0 0.01,0 0.01,0 0.04,0.01 0.07,0.01 0.08,0.01 0.02,-0.01 0.03,-0.02 0.03,-0.05 0,-0.02 -0.01,-0.04 -0.02,-0.05 -0.01,-0.02 -0.03,-0.03 -0.05,-0.03 -0.01,-0.01 -0.02,-0.01 -0.03,-0.01 -0.01,0.04 -0.02,0.09 -0.02,0.13zm-0.26 0.24c0.02,-0.17 0.04,-0.33 0.07,-0.48 0.02,-0.16 0.04,-0.32 0.06,-0.48 0.07,0.02 0.15,0.05 0.22,0.07 0.08,0.04 0.15,0.09 0.19,0.16 0.05,0.07 0.07,0.15 0.07,0.24 -0.01,0.06 -0.02,0.11 -0.04,0.13 -0.02,0.02 -0.06,0.02 -0.1,-0.01 0.04,0.05 0.07,0.09 0.09,0.14 0.02,0.05 0.03,0.1 0.03,0.16 -0.01,0.1 -0.03,0.16 -0.08,0.18 -0.04,0.01 -0.09,-0.08 -0.18,-0.12 -0.1,-0.05 -0.22,-0.01 -0.33,0.01zm0.98 -0.37c-0.04,0 -0.07,0.01 -0.1,0.05 -0.02,0.04 -0.03,0.09 -0.03,0.15 -0.01,0.06 0,0.1 0.02,0.13 0.02,0.03 0.05,0.05 0.08,0.05 0.04,0 0.07,-0.02 0.09,-0.07 0.03,-0.04 0.04,-0.09 0.04,-0.15 0,-0.05 -0.01,-0.09 -0.03,-0.12 -0.02,-0.03 -0.04,-0.04 -0.07,-0.04zm-0.05 0.71c-0.04,0.01 -0.09,-0.01 -0.12,-0.03 -0.04,-0.02 -0.07,-0.06 -0.1,-0.11 -0.03,-0.05 -0.05,-0.11 -0.07,-0.18 -0.02,-0.07 -0.02,-0.14 -0.02,-0.21 0,-0.08 0.01,-0.15 0.02,-0.2 0.02,-0.07 0.04,-0.12 0.07,-0.16 0.03,-0.05 0.08,-0.09 0.13,-0.12 0.05,-0.03 0.1,-0.04 0.16,-0.04 0.09,0 0.17,0.04 0.23,0.12 0.03,0.04 0.06,0.08 0.07,0.13 0.02,0.05 0.02,0.11 0.02,0.18 0,0.07 -0.01,0.14 -0.02,0.2 -0.02,0.07 -0.04,0.13 -0.07,0.19 -0.04,0.07 -0.08,0.12 -0.13,0.16 -0.05,0.04 -0.11,0.07 -0.17,0.07zm0.39 -0.09c0.02,-0.17 0.04,-0.33 0.06,-0.49 0.02,-0.17 0.05,-0.33 0.07,-0.49 0.08,-0.02 0.17,-0.04 0.26,-0.06 0.09,-0.03 0.16,-0.03 0.21,0.01 0.05,0.03 0.08,0.09 0.08,0.18 0,0.08 -0.02,0.14 -0.05,0.2 -0.02,0.06 -0.07,0.1 -0.12,0.13 0.02,0.06 0.03,0.11 0.05,0.16 0.01,0.06 0.03,0.11 0.05,0.16 -0.09,0.03 -0.17,0.06 -0.25,0.09 -0.01,-0.06 -0.03,-0.11 -0.04,-0.16 -0.01,-0.05 -0.02,-0.1 -0.03,-0.16 -0.01,0.06 -0.02,0.12 -0.03,0.18 -0.01,0.06 -0.01,0.12 -0.02,0.17 -0.08,0.03 -0.16,0.05 -0.24,0.08zm0.31 -0.61c0.01,0 0.01,-0.01 0.02,-0.01 0.04,-0.01 0.06,-0.03 0.08,-0.05 0.02,-0.02 0.03,-0.05 0.03,-0.08 0,-0.03 -0.01,-0.05 -0.02,-0.05 -0.02,-0.01 -0.04,-0.01 -0.07,0 0,0 -0.01,0 -0.01,0 -0.01,0.06 -0.02,0.12 -0.03,0.19zm0.7 -0.03c0.02,0 0.05,-0.01 0.08,-0.01 0,-0.03 0,-0.06 0,-0.1 0,0 0,-0.01 0,-0.02 0,-0.04 -0.01,-0.07 -0.01,-0.09 0,-0.02 0,-0.03 0,-0.04 0,-0.01 0.01,-0.02 0.01,-0.03 -0.01,0.03 -0.02,0.05 -0.02,0.08 -0.01,0.02 -0.01,0.04 -0.02,0.06 -0.01,0.05 -0.03,0.1 -0.04,0.15zm-0.37 0.43c0.06,-0.17 0.12,-0.33 0.18,-0.5 0.06,-0.16 0.11,-0.32 0.17,-0.49 0.09,-0.01 0.18,-0.02 0.26,-0.03 0.02,0.15 0.03,0.29 0.04,0.44 0.02,0.15 0.03,0.3 0.05,0.45 -0.08,0 -0.16,0 -0.24,0.02 0,-0.04 0,-0.08 0,-0.12 -0.05,0.01 -0.11,0.02 -0.16,0.03 -0.01,0.04 -0.03,0.08 -0.04,0.13 -0.09,0.02 -0.17,0.04 -0.26,0.07z"/>
   <path id="1" class="fil1" d="M0.02 0.88c0.01,-0.02 0.03,-0.04 0.05,-0.06 0,0 0,0 0,0 0.02,-0.02 0.03,-0.05 0.05,-0.07 0,-0.01 0.01,-0.01 0.01,-0.02 -0.01,-0.04 -0.02,-0.07 -0.02,-0.11l0 0c-0.01,-0.04 -0.01,-0.08 -0.01,-0.12 0,0 0,0 0,0l0 0c0,-0.06 0.01,-0.11 0.02,-0.16 0,0 0,0 0,0l0 0c0.02,-0.04 0.04,-0.09 0.07,-0.12 0.03,-0.04 0.07,-0.07 0.11,-0.09 0.04,-0.02 0.09,-0.03 0.14,-0.03 0,0 0.01,0 0.01,0 0.03,0 0.05,0.01 0.08,0.02l0 0c0.03,0.01 0.05,0.02 0.08,0.04 0.02,0.02 0.04,0.04 0.06,0.07 0.01,0.01 0.03,0.03 0.04,0.04l0 -0.06c0.01,-0.04 0.04,-0.06 0.08,-0.06l0 0c0.06,0 0.09,0.01 0.12,0.01 0,0 0,0 0,0l0 0 0.11 0.01c0.04,0 0.07,0.04 0.07,0.07 0,0.01 0,0.01 0,0.01l-0.01 0.01 0.01 -0.02c0.01,-0.04 0.04,-0.06 0.07,-0.06l0 0 0.12 0.02c0,0 0,0 0,0l0 0c0.04,0 0.08,0.01 0.12,0.01 0.03,0.01 0.06,0.04 0.06,0.07l0 0.16c0.01,-0.04 0.02,-0.07 0.03,-0.11l0.02 -0.04c0.01,-0.04 0.04,-0.06 0.08,-0.05 0.04,0.01 0.07,0.01 0.11,0.02 0.04,0.01 0.08,0.02 0.12,0.03 0.03,0 0.05,0.03 0.05,0.06 0.02,-0.02 0.04,-0.04 0.07,-0.03 0,0 0.01,0 0.01,0l0 0c0.04,0.01 0.07,0.02 0.11,0.03 0.04,0.01 0.07,0.02 0.11,0.04 0.05,0.02 0.09,0.04 0.13,0.07 0.04,0.04 0.07,0.07 0.1,0.12 0.03,0.04 0.04,0.08 0.06,0.13 0,0.01 0,0.01 0,0.02 0.02,-0.02 0.04,-0.04 0.06,-0.06 0,0 0,0 0,0 0.03,-0.03 0.06,-0.04 0.08,-0.06l0 0c0.03,-0.02 0.07,-0.03 0.1,-0.03 0,0 0,0 0,0l0 0c0.03,-0.01 0.06,-0.01 0.1,-0.01 0,0 0,0 0,0 0.06,0 0.11,0.01 0.16,0.03 0.05,0.02 0.09,0.06 0.13,0.1 0.02,0.03 0.03,0.05 0.04,0.08 0.01,0.01 0.02,0.02 0.02,0.04l0.03 -0.22c0,-0.03 0.03,-0.05 0.06,-0.06 0.04,-0.01 0.08,-0.02 0.12,-0.03 0.04,-0.01 0.08,-0.02 0.13,-0.03 0.05,-0.01 0.1,-0.02 0.15,-0.02 0,0 0,0 0,0l0 0c0.04,0 0.09,0.02 0.12,0.04 0,0 0,0 0,0 0.04,0.03 0.07,0.06 0.08,0.1l0 0c0.02,0.04 0.03,0.09 0.03,0.14 0,0 0,0 0,0 0,0.04 -0.01,0.08 -0.02,0.12 0,0.04 -0.02,0.08 -0.03,0.11 -0.02,0.04 -0.04,0.07 -0.07,0.09 -0.01,0.02 -0.02,0.03 -0.04,0.04l0.03 0.11 0 0 0.01 0.01 0.03 -0.11 0.09 -0.25c0,0 0,0 0,0l0.09 -0.25 0.09 -0.24c0.01,-0.02 0.03,-0.04 0.05,-0.04l0 0c0.04,-0.01 0.09,-0.02 0.13,-0.02 0.05,-0.01 0.09,-0.02 0.14,-0.02 0.03,0 0.07,0.03 0.07,0.06l0.04 0.39 0 0.06 0.04 0.44c0.01,0.04 -0.02,0.07 -0.06,0.08 0,0 0,0 -0.01,0 -0.03,0 -0.07,0 -0.11,0 0,0 0,0 0,0l0 0c-0.03,0 -0.07,0.01 -0.11,0.01 -0.04,0.01 -0.07,-0.02 -0.08,-0.05 0,-0.01 0,-0.01 0,-0.02l0 -0.03c-0.01,0 -0.02,0 -0.04,0.01l-0.02 0.08c-0.01,0.03 -0.03,0.05 -0.05,0.05l0 0c-0.04,0.01 -0.08,0.02 -0.13,0.04 -0.04,0.01 -0.08,0.02 -0.13,0.04 0,0 -0.01,0 -0.02,0 0,0 -0.01,0.01 -0.01,0.01l0 0 -0.13 0.04c0,0 0,0 0,0l-0.12 0.04c-0.03,0.01 -0.06,0 -0.07,-0.02l0 0c-0.01,0.03 -0.03,0.05 -0.05,0.06l0 0c-0.04,0.01 -0.08,0.02 -0.12,0.04 -0.04,0.01 -0.08,0.02 -0.12,0.03 -0.04,0.01 -0.08,-0.01 -0.09,-0.05 0,0 0,-0.01 0,-0.02l0 0 0 -0.04c-0.01,0.01 -0.02,0.03 -0.03,0.04 -0.02,0.04 -0.05,0.06 -0.08,0.09 0,0 0,0 0,0 -0.03,0.02 -0.06,0.04 -0.1,0.06 -0.03,0.01 -0.07,0.02 -0.1,0.02l0 0c-0.03,0 -0.06,0 -0.09,-0.01l0 0c-0.03,0 -0.06,-0.02 -0.08,-0.03 -0.03,-0.02 -0.05,-0.04 -0.07,-0.06 0,0 0,0 0,0 -0.02,-0.02 -0.04,-0.05 -0.05,-0.07 -0.02,-0.03 -0.03,-0.06 -0.05,-0.09 0,-0.01 0,-0.01 0,-0.01 0,0 0,-0.01 0,-0.01 -0.02,0.02 -0.04,0.03 -0.06,0.04l0 0c-0.07,0.03 -0.11,-0.01 -0.16,-0.06 -0.02,-0.02 -0.05,-0.05 -0.09,-0.06 -0.05,-0.03 -0.13,-0.02 -0.21,0 -0.02,0 -0.05,0.01 -0.07,0.01 0,0 -0.01,0 -0.02,0 0,0.01 -0.01,0.01 -0.02,0.01 -0.07,0.02 -0.14,0.03 -0.22,0.05 -0.03,0.01 -0.06,-0.01 -0.07,-0.03l-0.01 0.01c0,0.03 -0.03,0.05 -0.05,0.05l-0.06 0.01c-0.01,0 -0.01,0 -0.01,0l0 0 -0.06 0.02c-0.03,0 -0.06,-0.01 -0.08,-0.04l0 0.01c0,0.02 -0.03,0.05 -0.05,0.05l0 0c-0.04,0.01 -0.08,0.01 -0.12,0.02 -0.04,0 -0.08,0.01 -0.11,0.01 -0.01,0 -0.02,0 -0.03,-0.01 -0.02,0.01 -0.03,0.02 -0.04,0.02l0 0c-0.04,0 -0.08,0 -0.12,-0.01 -0.04,0 -0.08,0 -0.13,0 -0.03,-0.01 -0.06,-0.04 -0.06,-0.08 0,0 0,0 0,0l0 0 0.01 -0.05c-0.03,0.04 -0.07,0.06 -0.11,0.08 -0.05,0.01 -0.11,0 -0.16,-0.03 -0.03,-0.02 -0.06,-0.04 -0.09,-0.08 -0.03,-0.03 -0.05,-0.07 -0.08,-0.12 -0.02,-0.04 -0.04,-0.1 -0.06,-0.16 -0.02,-0.06 -0.04,-0.12 -0.06,-0.19 0,-0.02 0,-0.05 0.02,-0.06l0 0zm0.05 0.04c0.03,-0.03 0.07,-0.08 0.11,-0.13 0.02,0.07 0.04,0.13 0.07,0.18 0.03,0.05 0.05,0.08 0.08,0.1 0.01,0 0.02,0 0.03,0 0.01,-0.01 0.01,-0.02 0.01,-0.03 0,-0.02 -0.01,-0.06 -0.04,-0.1 -0.01,-0.01 -0.01,-0.01 -0.02,-0.02 -0.05,-0.07 -0.09,-0.14 -0.11,-0.21 -0.02,-0.07 -0.03,-0.14 -0.03,-0.21 0,-0.1 0.03,-0.18 0.08,-0.24 0.05,-0.06 0.11,-0.1 0.19,-0.09 0.05,0 0.09,0.01 0.13,0.04 0.03,0.03 0.07,0.08 0.1,0.13 -0.04,0.1 -0.07,0.21 -0.1,0.31 -0.03,-0.05 -0.05,-0.09 -0.07,-0.11 -0.02,-0.03 -0.04,-0.04 -0.06,-0.05 -0.01,0 -0.02,0 -0.02,0.01 -0.01,0.01 -0.01,0.02 -0.01,0.04 0,0.03 0.01,0.06 0.05,0.1 0.01,0.01 0.02,0.02 0.02,0.03 0.05,0.05 0.09,0.11 0.1,0.17 0.02,0.05 0.03,0.13 0.03,0.21 -0.01,0.14 -0.03,0.25 -0.09,0.33 -0.05,0.07 -0.12,0.1 -0.2,0.05 -0.05,-0.03 -0.09,-0.08 -0.13,-0.17 -0.05,-0.08 -0.09,-0.21 -0.12,-0.34zm0.55 0.58c0.03,-0.21 0.05,-0.43 0.08,-0.64 0.03,-0.21 0.05,-0.43 0.08,-0.64 0.08,0 0.16,0.01 0.24,0.02 -0.03,0.21 -0.05,0.42 -0.08,0.63 -0.03,0.21 -0.06,0.42 -0.08,0.64 -0.08,0 -0.16,0 -0.24,-0.01zm0.3 0c0.04,-0.21 0.08,-0.42 0.12,-0.63 0.04,-0.21 0.08,-0.41 0.12,-0.62 0.07,0.01 0.15,0.02 0.23,0.03 0,0.06 0,0.13 0.01,0.19 0,0.06 0,0.13 0,0.19 0,0.04 0,0.08 0,0.12 0,0.04 0,0.09 0,0.13 0.03,-0.1 0.06,-0.2 0.09,-0.31 0.02,-0.1 0.05,-0.19 0.08,-0.29 0.08,0.01 0.16,0.03 0.23,0.04 0,0.17 -0.01,0.34 -0.02,0.5 -0.01,0.17 -0.01,0.33 -0.02,0.49 -0.07,0.02 -0.15,0.04 -0.22,0.05 0.01,-0.09 0.01,-0.19 0.02,-0.28 0.01,-0.1 0.01,-0.19 0.02,-0.29 -0.01,0.03 -0.01,0.06 -0.02,0.08 -0.01,0.03 -0.02,0.06 -0.03,0.1 -0.02,0.06 -0.04,0.14 -0.06,0.21 -0.02,0.07 -0.04,0.14 -0.06,0.21 -0.05,0.01 -0.09,0.02 -0.14,0.03 0,-0.1 0,-0.2 -0.01,-0.3 0,-0.1 0,-0.2 -0.01,-0.3 0,0.03 0,0.06 -0.01,0.09 0,0.03 -0.01,0.07 -0.02,0.1 -0.01,0.07 -0.02,0.14 -0.04,0.22 -0.01,0.07 -0.02,0.14 -0.03,0.21 -0.08,0.01 -0.15,0.03 -0.23,0.03zm1.18 -0.73c0.01,0 0.01,0 0.01,0 0.03,0.01 0.06,0.01 0.07,0.01 0.01,-0.01 0.02,-0.02 0.02,-0.04 0,-0.02 0,-0.03 -0.01,-0.04 -0.01,-0.02 -0.03,-0.02 -0.04,-0.03 -0.01,0 -0.02,-0.01 -0.03,-0.01 -0.01,0.04 -0.01,0.07 -0.02,0.11zm-0.04 0.33c0,0 0.01,0 0.01,0 0.04,0.01 0.07,0.01 0.08,0.01 0.02,-0.01 0.03,-0.02 0.03,-0.05 0,-0.02 -0.01,-0.04 -0.02,-0.05 -0.01,-0.02 -0.03,-0.03 -0.05,-0.03 -0.01,-0.01 -0.02,-0.01 -0.03,-0.01 -0.01,0.04 -0.02,0.09 -0.02,0.13zm-0.26 0.24c0.02,-0.17 0.04,-0.33 0.07,-0.48 0.02,-0.16 0.04,-0.32 0.06,-0.48 0.07,0.02 0.15,0.05 0.22,0.07 0.08,0.04 0.15,0.09 0.19,0.16 0.05,0.07 0.07,0.15 0.07,0.24 -0.01,0.06 -0.02,0.11 -0.04,0.13 -0.02,0.02 -0.06,0.02 -0.1,-0.01 0.04,0.05 0.07,0.09 0.09,0.14 0.02,0.05 0.03,0.1 0.03,0.16 -0.01,0.1 -0.03,0.16 -0.08,0.18 -0.04,0.01 -0.09,-0.08 -0.18,-0.12 -0.1,-0.05 -0.22,-0.01 -0.33,0.01zm0.98 -0.37c-0.04,0 -0.07,0.01 -0.1,0.05 -0.02,0.04 -0.03,0.09 -0.03,0.15 -0.01,0.06 0,0.1 0.02,0.13 0.02,0.03 0.05,0.05 0.08,0.05 0.04,0 0.07,-0.02 0.09,-0.07 0.03,-0.04 0.04,-0.09 0.04,-0.15 0,-0.05 -0.01,-0.09 -0.03,-0.12 -0.02,-0.03 -0.04,-0.04 -0.07,-0.04zm-0.05 0.71c-0.04,0.01 -0.09,-0.01 -0.12,-0.03 -0.04,-0.02 -0.07,-0.06 -0.1,-0.11 -0.03,-0.05 -0.05,-0.11 -0.07,-0.18 -0.02,-0.07 -0.02,-0.14 -0.02,-0.21 0,-0.08 0.01,-0.15 0.02,-0.2 0.02,-0.07 0.04,-0.12 0.07,-0.16 0.03,-0.05 0.08,-0.09 0.13,-0.12 0.05,-0.03 0.1,-0.04 0.16,-0.04 0.09,0 0.17,0.04 0.23,0.12 0.03,0.04 0.06,0.08 0.07,0.13 0.02,0.05 0.02,0.11 0.02,0.18 0,0.07 -0.01,0.14 -0.02,0.2 -0.02,0.07 -0.04,0.13 -0.07,0.19 -0.04,0.07 -0.08,0.12 -0.13,0.16 -0.05,0.04 -0.11,0.07 -0.17,0.07zm0.39 -0.09c0.02,-0.17 0.04,-0.33 0.06,-0.49 0.02,-0.17 0.05,-0.33 0.07,-0.49 0.08,-0.02 0.17,-0.04 0.26,-0.06 0.09,-0.03 0.16,-0.03 0.21,0.01 0.05,0.03 0.08,0.09 0.08,0.18 0,0.08 -0.02,0.14 -0.05,0.2 -0.02,0.06 -0.07,0.1 -0.12,0.13 0.02,0.06 0.03,0.11 0.05,0.16 0.01,0.06 0.03,0.11 0.05,0.16 -0.09,0.03 -0.17,0.06 -0.25,0.09 -0.01,-0.06 -0.03,-0.11 -0.04,-0.16 -0.01,-0.05 -0.02,-0.1 -0.03,-0.16 -0.01,0.06 -0.02,0.12 -0.03,0.18 -0.01,0.06 -0.01,0.12 -0.02,0.17 -0.08,0.03 -0.16,0.05 -0.24,0.08zm0.31 -0.61c0.01,0 0.01,-0.01 0.02,-0.01 0.04,-0.01 0.06,-0.03 0.08,-0.05 0.02,-0.02 0.03,-0.05 0.03,-0.08 0,-0.03 -0.01,-0.05 -0.02,-0.05 -0.02,-0.01 -0.04,-0.01 -0.07,0 0,0 -0.01,0 -0.01,0 -0.01,0.06 -0.02,0.12 -0.03,0.19zm0.7 -0.03c0.02,0 0.05,-0.01 0.08,-0.01 0,-0.03 0,-0.06 0,-0.1 0,0 0,-0.01 0,-0.02 0,-0.04 -0.01,-0.07 -0.01,-0.09 0,-0.02 0,-0.03 0,-0.04 0,-0.01 0.01,-0.02 0.01,-0.03 -0.01,0.03 -0.02,0.05 -0.02,0.08 -0.01,0.02 -0.01,0.04 -0.02,0.06 -0.01,0.05 -0.03,0.1 -0.04,0.15zm-0.37 0.43c0.06,-0.17 0.12,-0.33 0.18,-0.5 0.06,-0.16 0.11,-0.32 0.17,-0.49 0.09,-0.01 0.18,-0.02 0.26,-0.03 0.02,0.15 0.03,0.29 0.04,0.44 0.02,0.15 0.03,0.3 0.05,0.45 -0.08,0 -0.16,0 -0.24,0.02 0,-0.04 0,-0.08 0,-0.12 -0.05,0.01 -0.11,0.02 -0.16,0.03 -0.01,0.04 -0.03,0.08 -0.04,0.13 -0.09,0.02 -0.17,0.04 -0.26,0.07zm-3.09 -0.83l-0.04 0.12c0,0.02 -0.02,0.03 -0.03,0.04 0,0 0,0 0,0 0.02,0.03 0.03,0.05 0.04,0.08l0.03 -0.24zm2.11 0.49c-0.01,0 -0.01,0 -0.02,0 0,0 0,0 0,0 0,0 -0.01,0.01 -0.02,0.02 -0.01,0.02 -0.01,0.03 -0.02,0.05 0,0.02 -0.01,0.04 -0.01,0.06 0,0 0,0 0,0l0 0c0,0.03 0.01,0.05 0.01,0.06 0,0.01 0.01,0.03 0.01,0.04 0,0 0,0 0,0 0.01,0.01 0.01,0.01 0.01,0.01 0.01,0 0.01,0 0.01,0l0 0c0,0 0.01,0 0.01,0 0.01,-0.01 0.02,-0.02 0.03,-0.03 0.01,-0.02 0.01,-0.04 0.02,-0.06 0,-0.01 0.01,-0.04 0.01,-0.06 0,0 0,0 0,0 0,-0.02 -0.01,-0.04 -0.01,-0.05 0,-0.01 -0.01,-0.02 -0.01,-0.03 -0.01,-0.01 -0.01,-0.01 -0.01,-0.01 0,0 0,0 0,0 -0.01,0 -0.01,0 -0.01,0z"/>
  </g>
  <path class="fil2" d="M5.68 0.35c0.07,0 0.17,0.02 0.22,0.06 0.17,0.15 0.01,0.33 -0.15,0.33 -0.06,0 -0.15,-0.03 -0.21,-0.03 -0.06,0.01 -0.09,0.06 -0.1,0.11 -0.03,0.11 0.04,0.27 0,0.39 -0.02,0.05 -0.07,0.09 -0.14,0.1 -0.13,0.02 -0.21,-0.02 -0.24,-0.09 -0.05,-0.1 -0.02,-0.25 -0.01,-0.34 0.01,-0.08 -0.01,-0.15 -0.07,-0.18 -0.11,-0.05 -0.21,-0.02 -0.29,-0.04 -0.17,-0.04 -0.17,-0.23 -0.01,-0.3 0.06,-0.03 0.17,-0.03 0.3,-0.03 0.07,0 0.11,0 0.13,-0.02 0.05,-0.04 0.06,-0.11 0.07,-0.17 0,-0.04 0,-0.08 0.01,-0.09 0.01,-0.02 0.04,-0.05 0.07,-0.05 0.18,-0.02 0.09,0.31 0.18,0.33 0.08,0.02 0.2,0.02 0.24,0.02z"/>
  <path class="fil3" d="M7.32 1.09c0,0.03 -0.01,0.06 -0.02,0.08 -0.02,0.04 -0.03,0.06 -0.04,0.08 0,0.01 -0.01,0.02 -0.02,0.03 -0.01,0.02 -0.02,0.03 -0.03,0.05 -0.02,0 -0.05,-0.01 -0.07,-0.02 -0.03,-0.02 -0.05,-0.03 -0.07,-0.03 -0.01,0 -0.02,0 -0.03,0.01 -0.01,0 -0.01,0 -0.02,0 -0.02,0 -0.02,-0.01 -0.02,-0.01 -0.01,0 -0.03,0.01 -0.04,0.01 -0.02,0.01 -0.04,0.01 -0.06,0.01 0,0 0,0 -0.01,-0.01 -0.01,-0.01 -0.03,-0.01 -0.04,-0.01 -0.02,0.01 -0.03,0.01 -0.05,0.01 -0.01,0 -0.03,0 -0.04,-0.01 -0.01,0 -0.02,0 -0.02,0 -0.01,0 -0.01,0 -0.02,0.01 -0.01,0 -0.01,0.01 -0.02,0.01 0,0 0,0 -0.01,0l0 0c0,0 -0.01,0 -0.03,0 -0.01,0 -0.02,0 -0.03,0 -0.02,0 -0.04,0 -0.05,0.01 -0.01,0 -0.02,0 -0.04,0 -0.02,0 -0.06,-0.01 -0.1,-0.02 0,0 -0.03,0 -0.06,0 -0.01,0 -0.02,0 -0.03,0 -0.02,-0.01 -0.03,-0.01 -0.03,-0.01 -0.01,0 -0.03,0.01 -0.05,0.02 -0.02,0.02 -0.04,0.02 -0.06,0.02 -0.02,0 -0.05,0 -0.08,-0.01 -0.02,0 -0.03,-0.01 -0.05,-0.02 -0.02,-0.01 -0.02,-0.02 -0.02,-0.02 0,-0.01 0.01,-0.01 0.02,-0.02 0.01,-0.01 0.02,-0.01 0.03,-0.02 0.04,0 0.08,-0.01 0.13,-0.03 0.01,0 0.01,-0.01 0.02,-0.03 0,-0.01 0.01,-0.02 0.01,-0.03 0.01,-0.02 0.01,-0.04 0.01,-0.04 0,0 0,-0.01 0,-0.04 0,-0.01 0,-0.02 0.01,-0.04 0.01,-0.02 0.02,-0.05 0.02,-0.09 0,-0.07 0,-0.13 0.01,-0.18 0,-0.02 0,-0.03 -0.01,-0.05 0,-0.01 0,-0.02 0,-0.03 0,-0.01 0,-0.01 0,-0.02 0.01,-0.04 0.02,-0.07 0.02,-0.09 0,-0.02 -0.01,-0.04 -0.03,-0.08 0,-0.02 -0.01,-0.04 -0.02,-0.06 -0.01,-0.02 -0.02,-0.03 -0.03,-0.04 -0.01,0 -0.02,-0.01 -0.04,-0.01 0,-0.01 -0.02,0 -0.04,0 -0.01,0.01 -0.02,0.01 -0.04,0 -0.03,-0.01 -0.03,-0.03 -0.03,-0.06 0,-0.02 0.02,-0.03 0.05,-0.05 0.02,-0.01 0.05,-0.02 0.08,-0.02 0.01,0 0.03,0 0.05,0.01 0.03,0 0.04,0.01 0.05,0.01 0.01,0 0.03,-0.01 0.04,-0.01 0.02,-0.01 0.04,-0.01 0.05,-0.01 0.01,0 0.03,0 0.04,0 0.01,0.01 0.03,0 0.05,0 0.02,0 0.03,0 0.03,0 0.02,0.01 0.04,0.02 0.07,0.03 0.01,0 0.02,0 0.03,0l0 0c0,0 0.01,0 0.04,0 0.02,-0.01 0.05,-0.01 0.07,0 0.01,0 0.01,0 0.02,0 0.02,-0.01 0.03,-0.01 0.04,-0.01 0.02,0 0.04,0 0.06,-0.01 0.03,-0.01 0.04,-0.01 0.05,-0.01 0.01,0 0.03,0 0.06,0.01 0.03,0.01 0.05,0.01 0.07,0.01 0.01,0.01 0.03,0 0.06,0 0.04,-0.01 0.06,-0.02 0.06,-0.02 0.03,0 0.06,0.01 0.1,0.04 0.01,0.01 0.02,0.04 0.01,0.09 0,0.02 0,0.05 -0.01,0.09 0,0.02 0,0.04 0.01,0.05 0.01,0.02 0.02,0.03 0.02,0.06 0,0.02 -0.01,0.04 -0.02,0.06 -0.01,0.01 -0.02,0.01 -0.03,0.01 -0.02,0 -0.03,0 -0.03,-0.01 0,-0.01 -0.01,-0.03 -0.03,-0.04 0,-0.01 -0.01,-0.02 -0.01,-0.04 0,-0.02 -0.01,-0.03 -0.02,-0.04 -0.03,-0.02 -0.05,-0.04 -0.06,-0.06 -0.01,-0.01 -0.03,-0.03 -0.06,-0.05 0,0 -0.01,-0.01 -0.04,-0.03 0,-0.01 -0.03,-0.02 -0.06,-0.02 -0.01,0.01 -0.03,0.01 -0.05,0 -0.02,0.01 -0.05,0.01 -0.1,0 -0.03,0 -0.05,0 -0.05,0 -0.03,0.01 -0.05,0.02 -0.08,0.02 -0.02,0.01 -0.04,0.02 -0.06,0.04 0,0.01 -0.01,0.04 -0.02,0.11 0,0.01 0,0.02 -0.01,0.04 -0.01,0.01 -0.01,0.03 -0.01,0.03 0,0.01 0,0.03 0.01,0.04 0.01,0.01 0.02,0.03 0.02,0.06 0,0.01 0,0.02 0.01,0.02 0.01,0.01 0.02,0.01 0.03,0.01 0,0.01 0.02,0 0.06,-0.01 0.01,-0.01 0.05,-0.03 0.12,-0.05 0.02,-0.01 0.04,-0.03 0.04,-0.06 0,-0.02 0,-0.03 0.01,-0.04 0,-0.01 0.01,-0.02 0.01,-0.02 0.01,-0.02 0.02,-0.04 0.03,-0.05 0,0 0.01,-0.01 0.01,0 0.01,0 0.01,0 0.02,0.01 0.01,0 0.02,0.02 0.03,0.05 0,0.01 0,0.01 0,0.02 0,0.01 0,0.03 -0.01,0.05 -0.01,0.03 -0.02,0.04 -0.02,0.04 0,0.01 0,0.03 -0.01,0.07 0,0.01 0,0.02 0,0.03 0,0.01 0,0.01 0.01,0.02 0,0.02 0,0.04 0.01,0.07 0.01,0.03 0,0.06 -0.01,0.07 0,0.01 -0.02,0.01 -0.05,0.01 0,0 -0.01,-0.01 -0.02,-0.02 -0.02,-0.03 -0.04,-0.05 -0.06,-0.05 -0.01,-0.01 -0.02,-0.01 -0.03,-0.02 -0.02,0 -0.03,-0.01 -0.04,-0.03 0,0 -0.02,0 -0.05,0.01 -0.02,-0.01 -0.03,-0.01 -0.04,-0.02 -0.01,0 -0.02,0 -0.04,0 -0.01,0 -0.01,0.01 -0.02,0.02 -0.01,0.01 -0.02,0.02 -0.02,0.03 -0.01,0.01 -0.01,0.01 -0.01,0.02 0,0 -0.01,0.02 -0.02,0.06 0,0.01 0,0.02 0,0.03 0,0.02 0,0.04 0.01,0.05 0.01,0.02 0.01,0.04 0.01,0.05 0,0.03 0.01,0.06 0.03,0.09 0,0.01 0.01,0.02 0.01,0.03 0.01,0.02 0.02,0.03 0.04,0.05 0.01,0 0.04,0.01 0.1,0.01 0.01,0 0.02,0 0.03,-0.01 0.01,0 0.02,0 0.03,0 0.02,0.01 0.05,0 0.08,-0.02 0.01,0 0.02,0 0.03,0 0.03,-0.02 0.04,-0.02 0.05,-0.03 0.01,0 0.03,0 0.05,0 0,0 0.01,-0.01 0.02,-0.02 0.02,-0.02 0.04,-0.03 0.06,-0.04 0.01,-0.01 0.02,-0.02 0.02,-0.03 0.01,-0.02 0.02,-0.04 0.04,-0.06 0.01,-0.01 0.02,-0.02 0.03,-0.03 0.01,-0.01 0.02,-0.02 0.03,-0.04 0.01,-0.02 0.02,-0.03 0.02,-0.03 0.01,-0.01 0.02,-0.01 0.03,-0.01 0.01,0 0.03,0.01 0.05,0.04 0.01,0.01 0.01,0.02 0.01,0.04 0,0.02 0.01,0.04 0.01,0.05l0 0c0,0.01 0,0.02 0,0.04zm1.29 -0.8c-0.01,0.04 -0.02,0.06 -0.04,0.06 -0.02,0 -0.04,0 -0.06,0 -0.02,0 -0.03,0.02 -0.03,0.05 -0.02,0.05 -0.02,0.09 -0.02,0.12 -0.01,0.03 0,0.07 0,0.12 0.01,0.03 0.01,0.05 0.01,0.06 0,0.01 0,0.02 -0.01,0.04 0,0.02 0,0.03 0,0.05 0,0.01 0,0.03 0,0.06 0,0.01 0,0.03 -0.01,0.05 0,0.03 -0.01,0.05 -0.01,0.06 -0.02,0.02 -0.02,0.04 -0.03,0.05 0,0.03 -0.01,0.07 -0.02,0.11 -0.01,0.03 -0.03,0.06 -0.08,0.09 -0.03,0.02 -0.07,0.04 -0.11,0.07 -0.01,0.01 -0.02,0.02 -0.05,0.04 -0.02,0.01 -0.04,0.01 -0.06,0 -0.01,-0.01 -0.03,-0.02 -0.06,-0.01 -0.01,0 -0.03,0 -0.03,0 -0.02,0.01 -0.03,0.01 -0.03,0.01 -0.01,0.01 -0.01,0.01 -0.02,0.01 -0.01,0 -0.01,-0.01 -0.03,-0.01 -0.01,0 -0.03,-0.01 -0.04,-0.01 -0.02,0 -0.04,-0.01 -0.06,-0.01 -0.02,0 -0.04,-0.01 -0.05,-0.02 -0.02,-0.01 -0.05,-0.02 -0.09,-0.03 -0.02,0 -0.05,-0.01 -0.08,-0.03 0,-0.01 -0.01,-0.02 -0.02,-0.03 -0.01,-0.02 -0.01,-0.03 -0.02,-0.04 -0.01,0 -0.02,-0.01 -0.03,-0.03 0,-0.02 0,-0.03 -0.01,-0.05 0,-0.04 0,-0.08 0.01,-0.12 0,-0.03 0.01,-0.08 0.02,-0.13 0,-0.01 0,-0.03 0,-0.04 -0.01,-0.02 -0.01,-0.04 -0.01,-0.08 0.01,-0.06 0.02,-0.13 0.03,-0.19 0.01,-0.03 0.01,-0.05 0,-0.07 -0.01,-0.04 -0.03,-0.06 -0.04,-0.06 -0.01,0 -0.02,0 -0.03,0.01 -0.01,0 -0.02,0 -0.03,0 0,0 -0.01,0 -0.01,0 -0.02,-0.01 -0.03,-0.02 -0.03,-0.06 -0.01,-0.02 0,-0.04 0.01,-0.06 0.02,-0.02 0.03,-0.03 0.04,-0.03 0.01,0 0.02,-0.01 0.03,-0.01 0.01,0 0.02,0 0.03,0 0.01,0 0.03,0 0.05,0.01 0.03,0 0.04,0 0.06,0 0,0 0.01,0 0.03,0 0.01,0 0.03,0 0.06,0 0.02,-0.01 0.04,0 0.05,0 0.01,0.01 0.02,0.01 0.03,0.01 0.01,0 0.03,0 0.03,0 0.01,-0.01 0.02,-0.01 0.03,-0.01 0,0 0.01,0 0.02,0.02 0.02,0.01 0.02,0.01 0.03,0.01 0.01,0 0.02,0 0.03,-0.01 0.02,-0.01 0.03,-0.01 0.03,-0.01 0.01,-0.01 0.02,0 0.03,0.02 0,0.02 0,0.04 -0.01,0.05 -0.01,0.03 -0.02,0.04 -0.05,0.03 -0.02,0 -0.04,0 -0.05,0 -0.01,0.01 -0.03,0.02 -0.06,0.04 -0.02,0.02 -0.04,0.04 -0.04,0.07 0.01,0.01 0.01,0.03 0.02,0.07 0,0.06 0,0.11 0.01,0.17 0,0.02 0,0.03 0,0.05 0,0.01 0,0.03 -0.01,0.05 -0.01,0.03 -0.01,0.06 -0.01,0.1 0,0.07 0.01,0.12 0.02,0.17 0.01,0.02 0.02,0.03 0.03,0.05 0.01,0 0.02,0.01 0.04,0.03 0.01,0 0.02,0.01 0.03,0.02 0,0 0.01,0.01 0.02,0.01 0.03,0.01 0.06,0.01 0.08,0.01 0.02,0 0.03,0 0.04,0 0.03,-0.01 0.04,-0.01 0.05,-0.01 0.03,-0.01 0.06,-0.03 0.08,-0.05 0.01,0 0.02,-0.01 0.03,-0.01 0.01,-0.01 0.02,-0.04 0.03,-0.07 0.01,-0.03 0.01,-0.07 0.02,-0.11 0,-0.02 0.01,-0.05 0.02,-0.1 0,-0.02 0,-0.04 -0.01,-0.08 0,-0.03 0,-0.05 0,-0.08 0.01,-0.02 0.01,-0.03 0.02,-0.06 0.01,-0.03 0.01,-0.04 0.01,-0.05 0,-0.05 0,-0.08 -0.01,-0.09 0,0 0,-0.01 0,-0.02l0 0c0,0 0,-0.01 -0.01,-0.04 -0.01,-0.03 -0.03,-0.05 -0.07,-0.06 -0.04,-0.02 -0.07,-0.03 -0.08,-0.05 0,-0.01 0,-0.02 0,-0.03 0,0 0,-0.01 0.01,-0.01 0.03,-0.02 0.07,-0.03 0.12,-0.05 0,0 0.02,0 0.04,0 0.03,0.01 0.05,0.01 0.06,0.01 0.01,0 0.02,0 0.03,-0.01 0.01,-0.01 0.03,-0.01 0.04,-0.01 0.01,0 0.02,0 0.03,0 0.01,0.01 0.02,0.01 0.02,0.01 0,0 0.02,0 0.05,0 0.01,-0.01 0.02,0 0.03,0.02 0.02,0.02 0.02,0.04 0.02,0.05z"/>
 </g>
</svg>
